<svg xmlns="http://www.w3.org/2000/svg" xmlns:xlink="http://www.w3.org/1999/xlink" viewBox="0 0 192.1 249.8"><defs><radialGradient id="Unbenannter_Verlauf_26" cx="110.53" cy="93.27" r="111.89" gradientUnits="userSpaceOnUse"><stop offset="0" stop-color="#c9f9ee"/><stop offset="1" stop-color="#0071bc"/></radialGradient><linearGradient id="Unbenannter_Verlauf_39" x1="89.24" y1="191.99" x2="89.24" y2="244.36" gradientUnits="userSpaceOnUse"><stop offset="0" stop-color="#9d85b4"/><stop offset="1" stop-color="#662d91"/></linearGradient></defs><title>Zeichenfläche 3</title><g id="Ebene_2" data-name="Ebene 2"><circle cx="89.2" cy="114.7" r="85" fill="url(#Unbenannter_Verlauf_26)"/><path d="M144.6,213.8c-7.3,5.1-23.1,14.2-46.5,14.8h-4a126.9,126.9,0,0,1-39.5-6l-1.4-.4a2.5,2.5,0,0,1,1.4-4.9l1.5.5A123.9,123.9,0,0,0,98,223.5a79.4,79.4,0,0,0,42.2-12.9c-3.9-5.9-4.3-18.6-4.3-18.6s-15.1,13.8-46.7,13.8S42.5,192,42.5,192s-.6,19.5-7.5,21.4-9.9,6.9-9.5,10.1c1.3,8.9,32.8,20.9,63.7,20.9s62.5-12,63.8-20.9C153.4,220.5,150.8,215.9,144.6,213.8Z" fill="url(#Unbenannter_Verlauf_39)"/><path d="M147.3,34.6s.8,15.5-4.8,20.9-16.8,3.9-16.8,3.9,14.8-1,17.7,2.9,3,19.7,3,19.7,1-16.7,2.9-19.7,18.8-1.9,18.8-1.9-14.8-1-17.8-4S147.3,34.6,147.3,34.6Z" fill="#f2f2f2" opacity="0.78"/><path d="M137.2,5.5s.3,5.7-1.8,7.6-6.1,1.5-6.1,1.5,5.4-.4,6.5,1,1.1,7.3,1.1,7.3.4-6.2,1.1-7.3,6.8-.7,6.8-.7-5.4-.3-6.5-1.4S137.2,5.5,137.2,5.5Z" fill="#f2f2f2" opacity="0.78"/><path d="M175.7,14.2s.5,9.1-2.8,12.2-9.8,2.3-9.8,2.3,8.6-.6,10.4,1.7S175.2,42,175.2,42s.6-9.8,1.7-11.6,11-1.1,11-1.1-8.6-.6-10.4-2.3S175.7,14.2,175.7,14.2Z" fill="#f2f2f2" opacity="0.78"/><g opacity="0.52"><path d="M124.7,88.8c1,6.4.3,10.9-1.6,14s-6.2,6.7-12.8,11.8a75.2,75.2,0,0,0-13.6,13A17.5,17.5,0,0,0,93,138.5v6.4a69.5,69.5,0,0,1-11.2-.6,26,26,0,0,1-2.7-11.2,17,17,0,0,1,4.1-11.3,103,103,0,0,1,13.7-13.5c6.3-5.4,10.3-9.2,12.2-12s2.8-6.7,2.4-12a21.4,21.4,0,0,0-6.3-13.7,20.3,20.3,0,0,0-16.6-5.7c-4.7.4-11.7,3-21.3,9.9l-4.4,3.3c.3-2.9.7-5.8,1.2-8.6C75.2,57.8,83.4,52.7,90,52.2c10.1-.9,17.8,6,23.6,13S123.5,80.5,124.7,88.8ZM81.9,180.1c-.5-6.7-1-13.5-1.4-20.2a53.8,53.8,0,0,0,13.8,1.3c0,6.9-.1,13.9-.2,20.8A30.8,30.8,0,0,1,81.9,180.1Z" fill="#fff"/></g></g></svg>