<svg xmlns="http://www.w3.org/2000/svg" viewBox="0 0 333.4 320.1"><title>Zeichenfläche 2</title><g id="Ebene_2" data-name="Ebene 2"><path d="M154,164.8s11.7,66.5,6.1,86.9-27.3,43.1-27.2,49.2,30.6,11.4,48.9,11,36.2-6.9,35.8-23.1c-.1-4.5-20.7-21.8-25.1-35.8s-6.1-84.9-10.4-94.9S154,164.8,154,164.8Z" fill="#f2f2f2"/><path d="M172.1,292c6.6-22.5-6.9-125.6-6.9-125.6l-10.4,3.4c2.6,15.8,10,64.9,5.3,81.9-5.6,20.4-27.3,43.1-27.2,49.2.1,3.8,12.2,7.4,25.7,9.4C165,304.8,170.2,298.5,172.1,292Z" fill="#ccc"/><path d="M152.3,9c-28.1,8.8-24.5,77.5-48.2,100.4s-95.9,50.8-95.6,67c.6,22.2,118,25.5,172.5,20.2,48.4-4.8,157.6-13.9,142.5-52-5-12.6-83.6-24.3-108.3-44C201.5,89.8,186-1.5,152.3,9Z" fill="#009245"/><path d="M157,120.2c2.1,6.1,4.3,14.1-3.7,16.3s-24.4-3.5-24.5-7.5,1.7-14.2,3.6-18.3,4.1,1.9,10.3,3.8A144.7,144.7,0,0,1,157,120.2Z" fill="#f2f2f2"/><path d="M222.1,134.9c4.2,8,6.4,14,4.4,18.1s12-6.4,14-10.5-4.5-18.1-8.7-22S222.1,134.9,222.1,134.9Z" fill="#f2f2f2"/><path d="M223.2,181.4c-8.8-1.3-12.5,7.4-13.9,12.3,12.1-1.3,25.4-2.9,38.5-5C247.8,188.7,235.4,183.1,223.2,181.4Z" fill="#f2f2f2"/><path d="M297.3,131.5c-4.9,5.9-9.2,12-8.2,13.9,2.1,4,12.4,9.8,20.4,5.6,4.2-2.3,6.7-7.3,8.1-11.6C312.8,136.8,305.7,134.2,297.3,131.5Z" fill="#f2f2f2"/><path d="M194.8,93c3.2,1,8.5-1.4,13.2-3.9-2.2-5-4.5-11-7-17.6-5.8,3.8-10.6,7.5-10.6,7.5C190.5,83,188.6,91.1,194.8,93Z" fill="#f2f2f2"/><path d="M140.7,33.6c0-2.2-2.5-3.8-6.1-4.9a164.4,164.4,0,0,0-5.9,17.2C134.9,43,140.8,38.3,140.7,33.6Z" fill="#f2f2f2"/><path d="M89.9,194.7c-.1-4.1,11.9-12.4,9.8-16.4s-14.2-1.7-20.3.5c0,0,1.9,10.8,3.2,18.6l6.4.4A5.3,5.3,0,0,0,89.9,194.7Z" fill="#f2f2f2"/><path d="M38.6,165.6c4.1,1.9,32.1-15,34-19.1.7-1.6-4.5-5.2-11.2-9.1-11.2,6.4-22.6,12.6-31.9,18.5C33,160.3,36.7,164.7,38.6,165.6Z" fill="#f2f2f2"/><path d="M319.1,164.1c-25,.3-108.5,11.8-124.3,13.9-18.2,2.5-117.2,8.9-139.5,5.4C40.1,181,34.8,165.2,33,153.7c-14.2,8.7-24.6,16.5-24.5,22.7.6,22.2,118,25.5,172.5,20.2C219.8,192.8,297.4,186.1,319.1,164.1Z" fill="#232323" opacity="0.33"/></g></svg>