<svg xmlns="http://www.w3.org/2000/svg" viewBox="0 0 347 369"><title>hasi</title><g id="upper-right-leg-sitting"><rect x="164.1" y="314.3" width="29.5" height="39.7" rx="14.8" transform="translate(496.6 540.7) rotate(151.2)" fill="#167d8e"/></g><g id="lower-right-leg-sitting"><rect x="65" y="318.3" width="29.5" height="39.7" rx="14.8" transform="translate(93.9 685.3) rotate(-169.1)" fill="#167d8e"/></g><g id="tail"><ellipse cx="23.3" cy="230.9" rx="12.9" ry="12.2" transform="translate(-80.5 23.3) rotate(-20.8)" fill="#65cbef"/></g><g id="body"><path d="M19.1,270.9c0,44.7,43,65.5,101.2,65.5S230,315.6,230,270.9,182.8,190,124.5,190,19.1,226.2,19.1,270.9Z" fill="#2294af"/></g><g id="left-ear"><rect x="232.7" y="7.5" width="40" height="167" rx="20" transform="translate(32.7 -63) rotate(15.2)" fill="#65cbef"/><rect x="240.1" y="18" width="23.7" height="151.89" rx="11.8" transform="translate(33.4 -62.7) rotate(15.2)" fill="#a4e6f7"/></g><g id="right-ear"><rect x="114.6" y="55.3" width="40.5" height="119.62" rx="20.2" transform="translate(-40.5 88.5) rotate(-31.9)" fill="#65cbef"/><rect x="127.1" y="64.9" width="23.7" height="114" rx="10.4" transform="translate(-43.4 91.6) rotate(-31.8)" fill="#a4e6f7"/><rect x="83.3" y="55.5" width="40.5" height="74.51" rx="20.2" transform="translate(53.6 -37) rotate(27.1)" fill="#65cbef"/></g><g id="face"><path d="M272.1,206.3c0,35.6-33.1,56.6-74,56.6s-74-21-74-56.6,33.1-73.1,74-73.1S272.1,170.7,272.1,206.3Z" fill="#65cbef"/></g><g id="nose"><path d="M193.8,235.3l-4.4,6.9a3.1,3.1,0,0,0,2.7,4.8h8.7a3.1,3.1,0,0,0,2.6-4.8l-4.3-6.9A3.1,3.1,0,0,0,193.8,235.3Z" fill="#333"/></g><g id="eyes"><path d="M252.3,213a2.5,2.5,0,0,1-2.4-2c-.1-.7-1.6-6.8-8-6.8s-6.8,6.2-6.8,6.5a2.6,2.6,0,0,1-2.7,2.3,2.5,2.5,0,0,1-2.3-2.7c.3-3.9,3.1-11.1,11.8-11.1s12.2,7.1,12.9,10.8a2.4,2.4,0,0,1-2,2.9Z" fill="#333"/><path d="M163.8,213a2.5,2.5,0,0,1-2.4-2c-.1-.7-1.6-6.8-8-6.8s-6.8,6.2-6.8,6.5a2.6,2.6,0,0,1-2.7,2.3,2.5,2.5,0,0,1-2.3-2.7c.3-3.9,3.1-11.1,11.8-11.1s12.2,7.1,12.9,10.8a2.4,2.4,0,0,1-2,2.9Z" fill="#333"/></g><g id="carrot"><path d="M237.4,261c1.5.2,85.1,33,86.9,21.7S237.4,261,237.4,261Z" fill="#39b54a"/><path d="M236.9,258c3.6.2,96,17.1,95.4,6.7S236.9,258,236.9,258Z" fill="#39b54a"/><path d="M236.3,254.2c1.5-.2,73.5-1.4,70.8-11S236.3,254.2,236.3,254.2Z" fill="#39b54a"/><path d="M138.1,267.1l102.3,2.6A3.4,3.4,0,0,0,244,266l-.8-15.7a3.6,3.6,0,0,0-4-3.4L137.7,260C133.4,260.6,133.7,267,138.1,267.1Z" fill="#f15a24"/><polygon points="226 269.3 225.5 259.1 222 269.2 226 269.3" fill="#8e3216"/><polygon points="216.4 259.5 215.9 249.9 210.8 250.6 216.4 259.5" fill="#8e3216"/><polygon points="231.5 247.9 235.7 260.4 238.3 247 231.5 247.9" fill="#8e3216"/><path d="M154.3,267.5a21.5,21.5,0,0,0-4.5-5.4l-1.5,5.2Z" fill="#8e3216"/><polygon points="184.8 264.2 188.1 253.5 182.8 254.2 184.8 264.2" fill="#8e3216"/></g><g id="upper-left-leg-sitting"><rect x="140" y="318.3" width="29.5" height="39.7" rx="14.8" transform="translate(393.5 623.4) rotate(164.7)" fill="#65cbef"/></g><g id="lower-left-leg-sitting"><rect x="40.8" y="314.3" width="29.5" height="39.7" rx="14.8" transform="translate(11.1 670) rotate(-163)" fill="#65cbef"/></g></svg>