<svg xmlns="http://www.w3.org/2000/svg" viewBox="0 0 406.8 443"><title>Zeichenfläche 4</title><g id="Ebene_2" data-name="Ebene 2"><circle cx="348.1" cy="59.3" r="51.9" fill="#e2a944"/><circle cx="348.1" cy="59.3" r="45.8" fill="#f2f2f2"/><circle cx="348.1" cy="59.3" r="3.2" fill="#8c6239"/><line x1="326.8" y1="93.4" x2="330.3" y2="87.9" fill="none" stroke="#8c6239" stroke-linecap="round" stroke-miterlimit="10" stroke-width="3"/><line x1="369.5" y1="25.2" x2="366" y2="30.7" fill="none" stroke="#8c6239" stroke-linecap="round" stroke-miterlimit="10" stroke-width="3"/><line x1="346.7" y1="99.5" x2="347" y2="93" fill="none" stroke="#8c6239" stroke-linecap="round" stroke-miterlimit="10" stroke-width="3"/><line x1="349.5" y1="19.1" x2="349.3" y2="25.6" fill="none" stroke="#8c6239" stroke-linecap="round" stroke-miterlimit="10" stroke-width="3"/><line x1="367" y1="94.8" x2="364" y2="89.1" fill="none" stroke="#8c6239" stroke-linecap="round" stroke-miterlimit="10" stroke-width="3"/><line x1="329.3" y1="23.8" x2="332.3" y2="29.5" fill="none" stroke="#8c6239" stroke-linecap="round" stroke-miterlimit="10" stroke-width="3"/><line x1="382.3" y1="80.6" x2="376.8" y2="77.2" fill="none" stroke="#8c6239" stroke-linecap="round" stroke-miterlimit="10" stroke-width="3"/><line x1="314" y1="38" x2="319.5" y2="41.4" fill="none" stroke="#8c6239" stroke-linecap="round" stroke-miterlimit="10" stroke-width="3"/><line x1="388.3" y1="60.7" x2="381.9" y2="60.5" fill="none" stroke="#8c6239" stroke-linecap="round" stroke-miterlimit="10" stroke-width="3"/><line x1="307.9" y1="57.9" x2="314.4" y2="58.1" fill="none" stroke="#8c6239" stroke-linecap="round" stroke-miterlimit="10" stroke-width="3"/><line x1="383.7" y1="40.4" x2="377.9" y2="43.5" fill="none" stroke="#8c6239" stroke-linecap="round" stroke-miterlimit="10" stroke-width="3"/><line x1="312.6" y1="78.2" x2="318.4" y2="75.2" fill="none" stroke="#8c6239" stroke-linecap="round" stroke-miterlimit="10" stroke-width="3"/><circle cx="320.4" cy="103.7" r="6.1" fill="#e2a944"/><polygon points="348.1 59.3 347.8 59.6 324.6 77.9 318.5 87.4 328.3 81.8 348.1 59.3" fill="#8c6239"/><polygon points="348.1 59.3 348.4 59.4 366 67.3 373.6 67.2 367.4 62.8 348.1 59.3" fill="#8c6239"/><path d="M318.4,107s-19.6,71.5-43.5,124.2c-20.4,44.7-71.7,98.9-123,88.1C72.9,302.6-28.8,426,25.7,431.8s86-90.9,126.2-168.7C194.2,181.1,246,89.9,318.4,107Z" fill="none" stroke="#e2a944" stroke-miterlimit="10" stroke-width="7"/></g></svg>