<svg xmlns="http://www.w3.org/2000/svg" viewBox="0 0 141 180.3"><title>Zeichenfläche 5</title><g id="Ebene_2" data-name="Ebene 2"><rect x="18.8" y="13.2" width="103.4" height="153.84" rx="7.9" transform="translate(-19.2 19.1) rotate(-13.6)" fill="#f2f2f2"/><path d="M83,72.4h0A11,11,0,0,0,67.8,76l-.5.9-.8-.5A11,11,0,0,0,51.3,80h0a11,11,0,0,0,3.6,15.2l19.7,12,12-19.6A11,11,0,0,0,83,72.4Z" fill="#c1272d"/><path d="M21.8,43.5h0a2.4,2.4,0,0,0-3.4.8v.2h-.2a2.3,2.3,0,0,0-3.3.8h0a2.4,2.4,0,0,0,.8,3.4l4.3,2.6,2.7-4.3A2.4,2.4,0,0,0,21.8,43.5Z" fill="#c1272d"/><text transform="matrix(0.97, -0.23, 0.23, 0.97, 13.38, 41.7)" font-size="13.43" fill="#c1272d" font-family="TitilliumWeb-SemiBold, Titillium Web SemiBold" font-weight="600" letter-spacing="0.1em">A</text><path d="M120,136.6h0a2.3,2.3,0,0,0,3.3-.8l.2-.2h.1a2.4,2.4,0,0,0,3.4-.8h0a2.5,2.5,0,0,0-.8-3.4l-4.4-2.6-2.7,4.3A2.5,2.5,0,0,0,120,136.6Z" fill="#c1272d"/><text transform="matrix(-0.97, 0.23, -0.23, -0.97, 128.39, 138.41)" font-size="13.43" fill="#c1272d" font-family="TitilliumWeb-SemiBold, Titillium Web SemiBold" font-weight="600" letter-spacing="0.1em">A</text></g></svg>