<svg xmlns="http://www.w3.org/2000/svg" viewBox="0 0 197 458.7"><title>Zeichenfläche 6</title><g id="Ebene_2" data-name="Ebene 2"><path d="M18.4,365.9S66.8,192.4,75.2,97.4l20.3-9.1S40.4,348.8,47.6,370.4s6.3,33.1-20.9,27.3S5.5,379.9,18.4,365.9Z" fill="#f2f2f2"/><path d="M56.3,230.1l-3.1-4.5C37.1,299.1,18.4,365.9,18.4,365.9,7.2,378,1.2,388.8,17.8,395.2c.5-3.6.9-8,.4-11.2-1-6.7,14.9-51.1,14.9-51.1Z" fill="#1a1a1a" opacity="0.27"/><path d="M97.5,23.6s-48.7,175.1-76.1,186-23.7,25.5,29.6,34,55,.5,48.8-17.5S124,.8,97.5,23.6Z" fill="#f7931e"/><path d="M43.8,242.4C53,220.3,84.5,143.3,86,128c1.2-12.2,6.3-65,9.5-97.5l-2.7,9.3c-4.9,32.4-11.9,77.1-15.1,89C73.3,145,38.9,215.9,25.4,238.1A176,176,0,0,0,43.8,242.4Z" fill="#1a1a1a" opacity="0.23"/><path d="M89.2,246.8c2.6-23.2,11.6-105.2,11.7-120.6.1-12.9,1.4-71.1,2.1-103.8-1.4-.9-3-.7-4.9.7-.1,33.4-.7,101.1-3.3,115.6s-14.7,81.2-19.5,108A93,93,0,0,0,89.2,246.8Z" fill="#1a1a1a" opacity="0.23"/><path d="M87.3,432.2S133.5,311,167.7,251.5l-6.3-13.1s-78,175.3-90.1,185.4-16.5,17.2-.9,24.1S88,445.4,87.3,432.2Z" fill="#f2f2f2"/><path d="M117.7,338.3h-1.9c-19.5,41.4-39,81-44.5,85.6-9.9,8.2-14.6,14.4-7.7,20.1l7.8-11.6c2.8-4.1,16.4-30.4,16.4-30.4Z" fill="#1a1a1a" opacity="0.27"/><path d="M186.5,199.3s-46.7,122.3-37.8,139.1,1.3,24.2-28.1,9-27-20.6-16.7-28.9S182.7,175.8,186.5,199.3Z" fill="#f7931e"/><path d="M135.9,294.9c-4.7,12.9-15.4,52.3-15.4,52.3l1.5.9a90,90,0,0,0,15.5,6.4c.9-9.6,3.4-37.5,2.9-49.1s28.7-76.4,43.4-108.7l-.9.3C167.9,227.3,139.3,285.4,135.9,294.9Z" fill="#1a1a1a" opacity="0.23"/></g></svg>