<svg xmlns="http://www.w3.org/2000/svg" viewBox="0 0 296 408"><title>hasi-holesite</title><g id="lower-right-leg-standing"><rect x="147.6" y="356.3" width="29.5" height="39.7" rx="14.8" transform="translate(-19 8.8) rotate(-2.9)" fill="#65cbef"/></g><g id="lower-left-leg-standing"><rect x="87.8" y="356.3" width="29.5" height="39.7" rx="14.8" transform="translate(185.7 757) rotate(-177.1)" fill="#65cbef"/></g><g id="body"><path d="M57.1,311.9c0,44.7,31.6,65.5,74.4,65.5S212,356.6,212,311.9,177.3,231,134.5,231,57.1,267.2,57.1,311.9Z" fill="#2294af"/></g><g id="left-ear"><rect x="172.7" y="6.5" width="40" height="167" rx="20" transform="translate(30.3 -47.3) rotate(15.2)" fill="#65cbef"/><rect x="180.1" y="17" width="23.7" height="151.89" rx="11.8" transform="translate(31 -47) rotate(15.2)" fill="#a4e6f7"/></g><g id="right-ear"><rect x="54.6" y="54.3" width="40.5" height="119.62" rx="20.2" transform="translate(-49 56.7) rotate(-31.9)" fill="#65cbef"/><rect x="67.1" y="63.9" width="23.7" height="114" rx="10.4" transform="translate(-51.8 59.8) rotate(-31.8)" fill="#a4e6f7"/><rect x="23.3" y="54.5" width="40.5" height="74.51" rx="20.2" transform="translate(46.6 -9.8) rotate(27.1)" fill="#65cbef"/></g><g id="face"><path d="M212.1,205.3c0,35.6-33.1,56.6-74,56.6s-74-21-74-56.6,33.1-73.1,74-73.1S212.1,169.7,212.1,205.3Z" fill="#65cbef"/></g><g id="nose"><path d="M133.8,234.3l-4.4,6.9a3.1,3.1,0,0,0,2.7,4.8h8.7a3.1,3.1,0,0,0,2.6-4.8l-4.3-6.9A3.1,3.1,0,0,0,133.8,234.3Z" fill="#333"/></g><g id="eyes"><path d="M192.3,212a2.5,2.5,0,0,1-2.4-2c-.1-.7-1.6-6.8-8-6.8s-6.8,6.2-6.8,6.5a2.6,2.6,0,0,1-2.7,2.3,2.5,2.5,0,0,1-2.3-2.7c.3-3.9,3.1-11.1,11.8-11.1s12.2,7.1,12.9,10.8a2.4,2.4,0,0,1-2,2.9Z" fill="#333"/><path d="M103.8,212a2.5,2.5,0,0,1-2.4-2c-.1-.7-1.6-6.8-8-6.8s-6.8,6.2-6.8,6.5a2.6,2.6,0,0,1-2.7,2.3,2.5,2.5,0,0,1-2.3-2.7c.3-3.9,3.1-11.1,11.8-11.1s12.2,7.1,12.9,10.8a2.4,2.4,0,0,1-2,2.9Z" fill="#333"/></g><g id="carrot"><path d="M192.4,260c1.5.2,85.1,33,86.9,21.7S192.4,260,192.4,260Z" fill="#39b54a"/><path d="M191.9,257c3.6.2,96,17.1,95.4,6.7S191.9,257,191.9,257Z" fill="#39b54a"/><path d="M191.3,253.2c1.5-.2,73.5-1.4,70.8-11S191.3,253.2,191.3,253.2Z" fill="#39b54a"/><path d="M93.1,266.1l102.3,2.6A3.4,3.4,0,0,0,199,265l-.8-15.7a3.6,3.6,0,0,0-4-3.4L92.7,259C88.4,259.6,88.7,266,93.1,266.1Z" fill="#f15a24"/><polygon points="181 268.3 180.5 258.1 177 268.2 181 268.3" fill="#8e3216"/><polygon points="171.4 258.5 170.9 248.9 165.8 249.6 171.4 258.5" fill="#8e3216"/><polygon points="186.5 246.9 190.7 259.4 193.3 246 186.5 246.9" fill="#8e3216"/><path d="M109.3,266.5a21.5,21.5,0,0,0-4.5-5.4l-1.5,5.2Z" fill="#8e3216"/><polygon points="139.8 263.2 143.1 252.5 137.8 253.2 139.8 263.2" fill="#8e3216"/></g><g id="upper-right-leg-standing"><rect x="167.3" y="260.3" width="29.5" height="39.7" rx="14.8" transform="translate(502.9 373.7) rotate(139.3)" fill="#65cbef"/></g><g id="lower-left-leg-standing-2" data-name="lower-left-leg-standing"><rect x="74" y="260.3" width="29.5" height="39.7" rx="14.8" transform="translate(199.8 8) rotate(39.8)" fill="#65cbef"/></g></svg>