<svg xmlns="http://www.w3.org/2000/svg" viewBox="0 0 370 362"><title>hasi-holesite</title><g id="lower-right-leg-standing"><rect x="51.3" y="301.7" width="29.5" height="39.7" rx="14.8" transform="translate(232.5 38.6) rotate(42.1)" fill="#65cbef"/></g><g id="lower-left-leg-standing"><rect x="8.9" y="259.4" width="29.5" height="39.7" rx="14.8" transform="translate(-167.7 483.9) rotate(-132.1)" fill="#65cbef"/></g><g id="body"><path d="M37,201.7c-31.6,31.6-24,68.7,6.2,98.9s71.7,42.2,103.3,10.6,32.7-81.7,2.5-112S68.6,170.1,37,201.7Z" fill="#2294af"/></g><g id="left-ear"><rect x="269.8" y="57.2" width="40" height="167" rx="20" transform="translate(267.7 -180.7) rotate(60.2)" fill="#65cbef"/><rect x="275.3" y="66.2" width="23.7" height="151.89" rx="11.8" transform="translate(267.7 -177.6) rotate(60.2)" fill="#a4e6f7"/></g><g id="right-ear"><rect x="169.1" y="14.5" width="40.5" height="119.62" rx="20.2" transform="translate(21.9 -41.1) rotate(13.1)" fill="#65cbef"/><rect x="175.7" y="25.1" width="23.7" height="114" rx="10.4" transform="translate(23.7 -40.6) rotate(13.2)" fill="#a4e6f7"/><rect x="162.9" y="-0.8" width="40.5" height="74.51" rx="20.2" transform="translate(161.5 -149) rotate(72.1)" fill="#65cbef"/></g><g id="face"><path d="M222,235.9c-25.2,25.1-63.5,16.6-92.4-12.3s-37.4-67.2-12.3-92.4,75.1-28.2,104,.7S247.1,210.7,222,235.9Z" fill="#65cbef"/></g><g id="nose"><path d="M146.1,201l-8,1.9a3.1,3.1,0,0,0-1.5,5.2l6.2,6.2a3.1,3.1,0,0,0,5.2-1.5l1.9-8A3.2,3.2,0,0,0,146.1,201Z" fill="#333"/></g><g id="eyes"><path d="M203.3,226.7a2.6,2.6,0,0,1-.3-3.2c.4-.6,3.7-5.9-.8-10.4s-9.3-.5-9.5-.3a2.5,2.5,0,0,1-3.2-3.8c2.9-2.5,10-5.6,16.2.5s3.6,13.6,1.4,16.8a2.5,2.5,0,0,1-3.4.7Z" fill="#333"/><path d="M140.7,164.1a2.6,2.6,0,0,1-.3-3.2c.4-.6,3.7-5.9-.8-10.4s-9.3-.4-9.5-.3a2.5,2.5,0,0,1-3.5-.2,2.5,2.5,0,0,1,.3-3.6c2.9-2.5,10.1-5.6,16.2.6s3.6,13.6,1.5,16.7a2.5,2.5,0,0,1-3.5.7Z" fill="#333"/></g><g id="carrot"><path d="M169.4,260.6c.9,1.3,36.9,83.6,46.1,76.9S169.4,260.6,169.4,260.6Z" fill="#39b54a"/><path d="M171.2,258.2c2.4,2.7,55.7,80,62.7,72.1S171.2,258.2,171.2,258.2Z" fill="#39b54a"/><path d="M173.4,255.1c1.2.9,53,50.9,57.9,42.3S173.4,255.1,173.4,255.1Z" fill="#39b54a"/><path d="M94.9,194.7l70.4,74.2a3.6,3.6,0,0,0,5.2,0l10.6-11.7a3.5,3.5,0,0,0-.5-5.2l-81-62.5A3.5,3.5,0,0,0,94.9,194.7Z" fill="#f15a24"/><polygon points="155.4 258.5 162.3 250.9 152.6 255.6 155.4 258.5" fill="#8e3216"/><polygon points="155.6 244.8 162 237.6 157.9 234.5 155.6 244.8" fill="#8e3216"/><polygon points="174.4 247.2 168.6 259 179.9 251.4 174.4 247.2" fill="#8e3216"/><path d="M106,206.5a20.5,20.5,0,0,0,.6-7l-4.7,2.6Z" fill="#8e3216"/><polygon points="129.9 225.7 139.8 220.5 135.5 217.2 129.9 225.7" fill="#8e3216"/></g><g id="upper-right-leg-standing"><rect x="133.1" y="247.8" width="29.5" height="39.7" rx="14.8" transform="matrix(-1, -0.07, 0.07, -1, 275.29, 545.55)" fill="#65cbef"/></g><g id="lower-left-leg-standing-2" data-name="lower-left-leg-standing"><rect x="67.1" y="181.8" width="29.5" height="39.7" rx="14.8" transform="translate(275.2 101.7) rotate(84.8)" fill="#65cbef"/></g></svg>