<svg xmlns="http://www.w3.org/2000/svg" viewBox="0 0 309 413"><title>hasi</title><g id="upper-right-leg-sitting"><rect x="194.1" y="361.3" width="29.5" height="39.7" rx="14.8" transform="translate(575.6 614.4) rotate(151.2)" fill="#158b9e"/></g><g id="lower-right-leg-sitting"><rect x="95" y="365.3" width="29.5" height="39.7" rx="14.8" transform="translate(144.4 784.2) rotate(-169.1)" fill="#158b9e"/></g><g id="tail"><ellipse cx="43.3" cy="271.9" rx="12.9" ry="12.2" transform="translate(-93.7 33.1) rotate(-20.8)" fill="#65cbef"/></g><g id="lower-right-leg-standing"><rect x="147.6" y="361.3" width="29.5" height="39.7" rx="14.8" transform="translate(-19.2 8.8) rotate(-2.9)" fill="#65cbef"/></g><g id="lower-left-leg-standing"><rect x="87.8" y="361.3" width="29.5" height="39.7" rx="14.8" transform="translate(185.5 767) rotate(-177.1)" fill="#65cbef"/></g><g id="body"><path d="M57.1,317.9c0,44.7,31.6,65.5,74.4,65.5S212,362.6,212,317.9,177.3,237,134.5,237,57.1,273.2,57.1,317.9Z" fill="#2294af"/></g><g id="left-ear"><rect x="172.7" y="11.5" width="40" height="167" rx="20" transform="matrix(0.97, 0.26, -0.26, 0.97, 31.62, -47.15)" fill="#65cbef"/><rect x="180.1" y="22" width="23.7" height="151.89" rx="11.8" transform="translate(32.4 -46.8) rotate(15.2)" fill="#a4e6f7"/></g><g id="right-ear"><rect x="54.6" y="59.3" width="40.5" height="119.62" rx="20.2" transform="translate(-51.6 57.4) rotate(-31.9)" fill="#65cbef"/><rect x="67.1" y="68.9" width="23.7" height="114" rx="10.4" transform="translate(-54.5 60.5) rotate(-31.8)" fill="#a4e6f7"/><rect x="23.3" y="59.5" width="40.5" height="74.51" rx="20.2" transform="translate(48.9 -9.2) rotate(27.1)" fill="#65cbef"/></g><g id="face"><path d="M212.1,210.3c0,35.6-33.1,56.6-74,56.6s-74-21-74-56.6,33.1-73.1,74-73.1S212.1,174.7,212.1,210.3Z" fill="#65cbef"/></g><g id="nose"><path d="M133.8,239.3l-4.4,6.9a3.1,3.1,0,0,0,2.7,4.8h8.7a3.1,3.1,0,0,0,2.6-4.8l-4.3-6.9A3.1,3.1,0,0,0,133.8,239.3Z" fill="#333"/></g><g id="eyes"><path d="M192.3,217a2.5,2.5,0,0,1-2.4-2c-.1-.7-1.6-6.8-8-6.8s-6.8,6.2-6.8,6.5a2.6,2.6,0,0,1-2.7,2.3,2.5,2.5,0,0,1-2.3-2.7c.3-3.9,3.1-11.1,11.8-11.1s12.2,7.1,12.9,10.8a2.4,2.4,0,0,1-2,2.9Z" fill="#333"/><path d="M103.8,217a2.5,2.5,0,0,1-2.4-2c-.1-.7-1.6-6.8-8-6.8s-6.8,6.2-6.8,6.5a2.6,2.6,0,0,1-2.7,2.3,2.5,2.5,0,0,1-2.3-2.7c.3-3.9,3.1-11.1,11.8-11.1s12.2,7.1,12.9,10.8a2.4,2.4,0,0,1-2,2.9Z" fill="#333"/></g><g id="carrot"><path d="M202.4,265c1.5.2,85.1,33,86.9,21.7S202.4,265,202.4,265Z" fill="#39b54a"/><path d="M201.9,262c3.6.2,96,17.1,95.4,6.7S201.9,262,201.9,262Z" fill="#39b54a"/><path d="M201.3,258.2c1.5-.2,73.5-1.4,70.8-11S201.3,258.2,201.3,258.2Z" fill="#39b54a"/><path d="M103.1,271.1l102.3,2.6A3.4,3.4,0,0,0,209,270l-.8-15.7a3.6,3.6,0,0,0-4-3.4L102.7,264C98.4,264.6,98.7,271,103.1,271.1Z" fill="#f15a24"/><polygon points="191 273.3 190.5 263.1 187 273.2 191 273.3" fill="#8e3216"/><polygon points="181.4 263.5 180.9 253.9 175.8 254.6 181.4 263.5" fill="#8e3216"/><polygon points="196.5 251.9 200.7 264.4 203.3 251 196.5 251.9" fill="#8e3216"/><path d="M119.3,271.5a21.5,21.5,0,0,0-4.5-5.4l-1.5,5.2Z" fill="#8e3216"/><polygon points="149.8 268.2 153.1 257.5 147.8 258.2 149.8 268.2" fill="#8e3216"/></g><g id="upper-right-leg-standing"><rect x="166.3" y="279.3" width="29.5" height="39.7" rx="14.8" transform="translate(331.7 -16.5) rotate(56.7)" fill="#65cbef"/></g><g id="lower-left-leg-standing-2" data-name="lower-left-leg-standing"><rect x="73" y="279.3" width="29.5" height="39.7" rx="14.8" transform="matrix(-0.55, 0.84, -0.84, -0.55, 386.06, 390.02)" fill="#65cbef"/></g><g id="upper-left-leg-sitting"><rect x="170" y="365.3" width="29.5" height="39.7" rx="14.8" transform="translate(464.9 707.8) rotate(164.7)" fill="#65cbef"/></g><g id="lower-left-leg-sitting"><rect x="70.8" y="361.3" width="29.5" height="39.7" rx="14.8" transform="translate(56.1 770.7) rotate(-163)" fill="#65cbef"/></g></svg>