<?xml version="1.0" encoding="utf-8"?>
<!-- Generator: Adobe Illustrator 23.0.4, SVG Export Plug-In . SVG Version: 6.00 Build 0)  -->
<svg version="1.1" xmlns="http://www.w3.org/2000/svg" xmlns:xlink="http://www.w3.org/1999/xlink" x="0px" y="0px"
	 viewBox="0 0 309 413" style="enable-background:new 0 0 309 413;" xml:space="preserve">
<style type="text/css">
	.st0{fill:#4141AA;}
	.st1{fill:#7171CC;}
	.st2{fill:#27258C;}
	.st3{fill:#A4A4ED;}
	.st4{fill:#B7B7F7;}
	.st5{fill:#1A1A1A;}
	.st6{fill:#39B54A;}
	.st7{fill:#F15A24;}
	.st8{fill:#8E3216;}
</style>
<g id="upper-right-leg-sitting">
	<g>
		<path class="st0" d="M218.4,398.5L218.4,398.5c7.1-3.9,9.7-12.9,5.8-20.1l-4.9-8.9c-3.9-7.1-12.9-9.7-20.1-5.8l0,0
			c-7.1,3.9-9.7,12.9-5.8,20.1l4.9,8.9C202.3,399.8,211.3,402.5,218.4,398.5z"/>
	</g>
</g>
<g id="lower-right-leg-sitting">
	<g>
		<path class="st0" d="M106,404.7L106,404.7c8,1.5,15.8-3.7,17.3-11.7l1.9-10c1.5-8-3.7-15.8-11.7-17.3h0c-8-1.5-15.8,3.7-17.3,11.7
			l-1.9,10C92.8,395.3,98.1,403.1,106,404.7z"/>
	</g>
</g>
<g id="tail">
</g>
<g id="lower-right-leg-standing">
	<g>
		<path class="st1" d="M163.4,401L163.4,401c-8.1,0.4-15.1-5.9-15.5-14l-0.5-10.2c-0.4-8.1,5.9-15.1,14-15.5h0
			c8.1-0.4,15.1,5.9,15.5,14l0.5,10.2C177.8,393.6,171.5,400.6,163.4,401z"/>
	</g>
</g>
<g id="lower-left-leg-standing_1_">
	<g>
		<path class="st1" d="M101.5,401L101.5,401c8.1,0.4,15.1-5.9,15.5-14l0.5-10.2c0.4-8.1-5.9-15.1-14-15.5h0
			c-8.1-0.4-15.1,5.9-15.5,14l-0.5,10.2C87.1,393.6,93.4,400.6,101.5,401z"/>
	</g>
</g>
<g id="body">
	<path class="st2" d="M57.1,317.9c0,44.7,31.6,65.5,74.4,65.5s80.5-20.8,80.5-65.5s-34.7-81-77.5-81S57.1,273.2,57.1,317.9z"/>
</g>
<g id="left-ear">
	<g>
		<path class="st1" d="M170.8,175.6L170.8,175.6c-10.6-2.9-16.9-13.9-14.1-24.5L190,28.5c2.9-10.6,13.9-16.9,24.5-14.1l0,0
			c10.6,2.9,16.9,13.9,14.1,24.5l-33.3,122.6C192.5,172.2,181.4,178.5,170.8,175.6z"/>
		<path class="st3" d="M172,171.3L172,171.3c-6.3-1.7-10-8.2-8.3-14.5L197.3,33c1.7-6.3,8.2-10,14.5-8.3l0,0
			c6.3,1.7,10,8.2,8.3,14.5l-33.6,123.7C184.8,169.2,178.3,173,172,171.3z"/>
	</g>
</g>
<g id="right-ear">
	<g>
		<path class="st1" d="M43.3,68.3L43.3,68.3c-9.5,5.9-12.4,18.4-6.5,27.9l41.7,67.2c5.9,9.5,18.4,12.4,27.9,6.5l0,0
			c9.5-5.9,12.4-18.4,6.5-27.9L71.2,74.8C65.3,65.3,52.8,62.4,43.3,68.3z"/>
		<path class="st3" d="M110.2,173.5l-2.4,1.5c-4.9,3-11.3,1.5-14.4-3.4L44.4,92.5c-3-4.9-1.5-11.3,3.4-14.4l2.4-1.5
			c4.9-3,11.3-1.5,14.4,3.4l49.1,79.2C116.6,164.1,115.1,170.5,110.2,173.5z"/>
		<path class="st1" d="M60.6,63.6L60.6,63.6c-9.9-5.1-22.2-1.2-27.3,8.8l-15.5,30.3c-5.1,9.9-1.2,22.2,8.8,27.3l0,0
			c9.9,5.1,22.2,1.2,27.3-8.8l15.5-30.3C74.4,80.9,70.5,68.7,60.6,63.6z"/>
	</g>
</g>
<g id="face">
	<path class="st1" d="M212.1,210.3c0,35.6-33.1,56.6-74,56.6s-74-21-74-56.6s33.1-73.1,74-73.1S212.1,174.7,212.1,210.3z"/>
	<path class="st4" d="M133.8,239.3l-4.4,7c-1.3,2.1,0.2,4.8,2.6,4.8h8.7c2.5,0,3.9-2.7,2.6-4.8l-4.4-7
		C137.9,237.3,135,237.3,133.8,239.3z"/>
	<g>
		<path class="st5" d="M192.3,217c-1.2,0-2.2-0.8-2.4-2c-0.1-0.7-1.6-6.8-8-6.8c-6.3,0-6.8,6.2-6.9,6.5c-0.1,1.4-1.3,2.4-2.7,2.3
			c-1.4-0.1-2.4-1.3-2.3-2.7c0.3-3.9,3.1-11.1,11.9-11.1c8.5,0,12.1,7.1,12.9,10.8c0.3,1.4-0.6,2.7-2,2.9
			C192.7,217,192.5,217,192.3,217z"/>
		<path class="st5" d="M103.8,217c-1.2,0-2.2-0.8-2.4-2c-0.1-0.7-1.6-6.8-8-6.8c-6.3,0-6.8,6.2-6.9,6.5c-0.1,1.4-1.3,2.4-2.7,2.3
			c-1.4-0.1-2.4-1.3-2.3-2.7c0.3-3.9,3.1-11.1,11.9-11.1c8.5,0,12.1,7.1,12.9,10.8c0.3,1.4-0.6,2.7-2,2.9
			C104.2,217,104,217,103.8,217z"/>
	</g>
</g>
<g id="carrot">
	<g>
		<path class="st6" d="M202.4,265c1.6,0.3,85.2,33,87,21.7C291.2,275.4,202.4,265,202.4,265z"/>
		<path class="st6" d="M201.9,262c3.6,0.2,96,17.2,95.4,6.7C296.7,258.2,201.9,262,201.9,262z"/>
		<path class="st6" d="M201.3,258.2c1.5-0.2,73.5-1.5,70.8-11C269.4,237.6,201.3,258.2,201.3,258.2z"/>
		<path class="st7" d="M103.1,271.1l102.3,2.7c2.1,0.1,3.7-1.7,3.6-3.7l-0.8-15.7c-0.1-2.1-1.9-3.6-4-3.3L102.7,264
			C98.4,264.6,98.7,271,103.1,271.1z"/>
		<g>
			<polygon class="st8" points="191,273.3 190.5,263.1 187,273.2 			"/>
			<polygon class="st8" points="181.4,263.5 180.9,253.9 175.8,254.6 			"/>
			<polygon class="st8" points="196.5,251.9 200.7,264.4 203.3,251 			"/>
			<path class="st8" d="M119.3,271.5c-2-3.4-4.5-5.4-4.5-5.4l-1.5,5.2L119.3,271.5z"/>
			<polygon class="st8" points="149.8,268.2 153.1,257.5 147.8,258.2 			"/>
		</g>
	</g>
</g>
<g id="upper-right-leg-standing">
	<g>
		<path class="st1" d="M164.5,310.1L164.5,310.1c-4.5-6.8-2.6-16,4.2-20.5l8.5-5.6c6.8-4.5,16-2.6,20.5,4.2l0,0
			c4.5,6.8,2.6,16-4.2,20.5l-8.5,5.6C178.2,318.8,169,316.9,164.5,310.1z"/>
	</g>
</g>
<g id="lower-left-leg-standing">
	<g>
		<path class="st1" d="M104.4,310.1L104.4,310.1c4.5-6.8,2.6-16-4.2-20.5l-8.5-5.6c-6.8-4.5-16-2.6-20.5,4.2l0,0
			c-4.5,6.8-2.6,16,4.2,20.5l8.5,5.6C90.7,318.8,99.9,316.9,104.4,310.1z"/>
	</g>
</g>
<g id="upper-left-leg-sitting">
	<g>
		<path class="st1" d="M190.1,404.3L190.1,404.3c7.8-2.1,12.5-10.3,10.3-18.1l-2.7-9.8c-2.1-7.8-10.3-12.5-18.1-10.3h0
			c-7.8,2.1-12.5,10.3-10.3,18.1l2.7,9.8C174.1,401.8,182.2,406.5,190.1,404.3z"/>
	</g>
</g>
<g id="lower-left-leg-sitting">
	<g>
		<path class="st1" d="M79.7,400.1L79.7,400.1c7.8,2.4,16.1-2,18.4-9.8l3-9.7c2.4-7.8-2-16.1-9.8-18.4h0c-7.8-2.4-16.1,2-18.4,9.8
			l-3,9.7C67.5,389.5,72,397.8,79.7,400.1z"/>
	</g>
</g>
</svg>
