<?xml version="1.0" encoding="utf-8"?>
<!-- Generator: Adobe Illustrator 23.0.4, SVG Export Plug-In . SVG Version: 6.00 Build 0)  -->
<svg version="1.1" xmlns="http://www.w3.org/2000/svg" xmlns:xlink="http://www.w3.org/1999/xlink" x="0px" y="0px"
	 viewBox="0 0 136.4 138.1" style="enable-background:new 0 0 136.4 138.1;" xml:space="preserve">
<style type="text/css">
	.st0{fill:#7038A0;}
	.st1{fill:#22B573;}
	.st2{fill:#8152B2;}
	.st3{fill:#7171CC;}
	.st4{fill:#4141AA;}
	.st5{fill:#27258C;}
	.st6{fill:#A4A4ED;}
	.st7{fill:#B7B7F7;}
	.st8{fill:none;stroke:#000000;stroke-width:4;stroke-linecap:round;stroke-linejoin:round;stroke-miterlimit:10;}
	.st9{fill:#C69C6D;}
	.st10{fill:#8C6239;}
	.st11{fill:#E6E6E6;}
	.st12{fill:none;stroke:#000000;stroke-width:3.838;stroke-linejoin:round;stroke-miterlimit:10;}
	.st13{fill:none;stroke:#000000;stroke-width:3.838;stroke-linecap:round;stroke-linejoin:round;stroke-miterlimit:10;}
	.st14{fill:none;stroke:#000000;stroke-width:2.7619;stroke-linecap:round;stroke-linejoin:round;stroke-miterlimit:10;}
	.st15{opacity:0.51;fill:#F2F2F2;}
	.st16{fill:#1A1A1A;}
	.st17{fill:#1B1464;}
	.st18{fill:none;}
	.st19{fill:#6767C4;}
	.st20{fill:#8F8FE5;}
	.st21{fill:#2B2B93;}
	.st22{fill:#56BAB5;}
	.st23{fill:#61CECE;}
	.st24{fill:#BCEDEA;}
	.st25{fill:#EBEBFF;}
	.st26{fill:#0E0D3F;}
	.st27{fill:#5151BC;}
	.st28{fill:#39B54A;}
	.st29{fill:#F15A24;}
	.st30{fill:#8E3216;}
	.st31{opacity:0.53;}
	.st32{fill:#FFFFFF;}
</style>
<g id="outer-sparkle">
	<g>
		<path class="st0" d="M73.5,55c-1,0-1.6-0.9-1.2-1.6c0.2-0.4,0.5-0.7,0.9-1c0.3-0.2,0.6-0.3,0.9-0.7c0.4-0.7,1.1,0,1.5,0.1
			c0.2,0.1,0.4,0.8,0.3,1c-0.4,0.8-1,1.6-1.9,2C73.8,54.9,73.5,55,73.5,55z"/>
		<path class="st0" d="M58.3,51.2c-0.2,0.5-0.4,1.1-0.8,1.6c-0.5,0.6-1.2,0.4-1.5-0.3c-0.2-0.4-0.4-0.7-0.7-1.1
			c-0.3-0.5-0.1-1.1,0.3-1.4c0.4-0.3,1-0.4,1.5-0.4C57.9,49.8,58.1,50.4,58.3,51.2z"/>
		<path class="st0" d="M42.2,87.3c0.7,0,1.5,0.8,1.5,1.4c0,1.4-0.5,1.9-1.4,1.9c-0.7,0-1.6-1.2-1.5-2.1
			C40.8,87.9,41.5,87.3,42.2,87.3z"/>
		<path class="st0" d="M36,72.8c0-0.9,0.3-1.4,1-1.4c1.5,0,1.9,0.2,1.9,1.2c-0.1,1-0.6,1.8-1.5,1.7C36.4,74.1,36,73.8,36,72.8z"/>
		<path class="st0" d="M104.9,41.6c-0.6,0-1.3,0.3-1.4-0.6c0-0.3,0.2-0.8,0.4-0.9c0.6-0.3,0.9,0.1,1.1,0.7c0.6-0.6,1.2-0.7,1.8-0.3
			c0.3,0.2,0.4,0.9,0.3,1.3c-0.1,0.5-0.5,1.1-1.2,1C105.2,42.7,104.8,42.3,104.9,41.6z"/>
		<path class="st0" d="M105.9,87.1c0,0.9-0.7,1.8-1.5,1.7c-0.7,0-1.4-0.9-1.3-1.7c0-0.8,0.8-1.5,1.7-1.4
			C105.3,85.7,105.9,86.5,105.9,87.1z"/>
		<path class="st0" d="M70.8,68.6c0.8,0,1.3,0.2,1.4,1.1c0,0.1,0.1,0.3,0.2,0.3c0.4,0.3,0.5,0.7,0.1,1.1c-0.3,0.3-0.8,0.8-1.3,0.2
			c-0.2-0.2-0.5-0.2-0.7-0.3c-0.8-0.2-0.8-0.9-0.7-1.5C69.8,68.9,70.2,68.6,70.8,68.6z"/>
		<path class="st0" d="M39,86.8c0.7,0,1.6,0.8,1.5,1.4c0,0.7-0.7,1.5-1.3,1.5c-0.9-0.1-1.8-0.9-1.7-1.6C37.6,87.4,38.4,86.8,39,86.8
			z"/>
		<path class="st0" d="M94.8,107.4c0,0.8-0.5,1.5-1.2,1.5c-0.9,0-1.4-0.6-1.4-1.5c0-0.7,0.8-1.4,1.4-1.4
			C94.1,106,94.8,106.8,94.8,107.4z"/>
		<path class="st0" d="M34.9,41.7c-0.1-0.7,0.4-1.2,1.2-1.3c1-0.1,1.4,0.1,1.4,0.8c0.1,1.3-0.1,1.7-1,1.8
			C35.4,43.2,35,42.8,34.9,41.7z"/>
		<path class="st0" d="M23,62c0.2,0.1,0.4,0.2,0.6,0.3c0.4,0.4,0,1.9-0.5,2.2c-0.5,0.2-2.1-0.3-2.1-0.7c0-0.5,0.4-1,0.7-1.4
			C22,62.1,22.6,62.1,23,62z"/>
		<path class="st0" d="M96,103.9c0.5,0,1.1,0.8,1.1,1.5c0,0.7-0.9,1.3-1.6,1.2c-0.7-0.1-1.1-0.6-1.1-1.3
			C94.4,104.5,95.2,103.9,96,103.9z"/>
		<path class="st0" d="M84.7,89.5c0.6,0,1.1,0.5,1.1,1.2c0,0.8-0.6,1.6-1.3,1.6c-0.6,0-1.3-0.6-1.3-1.2
			C83.3,90.1,83.8,89.5,84.7,89.5z"/>
		<path class="st0" d="M9.3,89.4c-0.1,0.1-0.2,0.4-0.5,0.5c-0.3,0.2-0.8,0.4-1,0.2c-0.3-0.2-0.6-0.7-0.6-1.1c0-0.3,0.4-0.7,0.7-0.8
			c0.5-0.2,1.1-0.2,1.7-0.1c0.3,0.1,0.7,0.4,0.9,0.7c0.1,0.1,0,0.5-0.1,0.5C10.2,89.5,9.8,89.4,9.3,89.4z"/>
		<path class="st0" d="M125.5,51.9c0,0.8-0.4,1.1-1.1,0.7c-0.4-0.2-0.8-0.5-1.2-0.8c-0.7-0.4-0.5-1-0.2-1.4c0.3-0.5,0.8-0.4,1.3-0.1
			C124.9,50.7,125.5,51.1,125.5,51.9z"/>
		<path class="st0" d="M46.6,93.5c0.7,0,1.3,0.7,1.3,1.3c0,0.6-0.8,1.3-1.4,1.1c-0.4-0.2-0.9-0.7-1-1.1C45.2,94.1,46,93.4,46.6,93.5
			z"/>
		<path class="st0" d="M89.8,104.1c0.6,0,1.2,0.5,1.2,1.1c0,0.5-0.8,1.4-1.3,1.4c-0.5,0-1-0.9-1.1-1.6
			C88.6,104.5,89.1,104.2,89.8,104.1z"/>
		<path class="st0" d="M32,22.7c0.6,0,1.5,0.6,1.5,1c0,0.6-0.8,1.3-1.6,1.3c-0.7,0-1.1-0.4-1.1-1.1C30.8,23.6,31.5,22.8,32,22.7z"/>
		<path class="st0" d="M76.3,73.6c0,0.6-0.6,1.2-1.2,1.3c-0.7,0-1.3-0.4-1.3-1c0-0.8,0.5-1.4,1.2-1.4C75.7,72.6,76.3,73,76.3,73.6z"
			/>
		<path class="st0" d="M105.3,67.4c0.7-0.2,0.9,0.3,0.9,0.9c0,0.7-0.6,1.4-1.1,1.4c-0.5-0.1-1.2-0.1-1.2-0.9
			C103.8,67.9,104.3,67.4,105.3,67.4z"/>
		<path class="st0" d="M99.3,91.9c-0.2,0.3-0.6,0.8-1,1.1c-0.4,0.2-1.2-0.7-1.1-1.4c0.1-0.5,0.5-1.1,0.9-1.2
			C98.7,90.1,99.3,90.8,99.3,91.9z"/>
		<path class="st0" d="M118.3,64.8c0.7,0,1.8,0.8,1.6,1.1c-0.3,0.5-0.7,1-1.2,1.3c-0.4,0.2-1-0.7-1-1.4
			C117.7,65.3,117.7,64.7,118.3,64.8z"/>
		<path class="st0" d="M63.9,100.1c-0.7,0-0.7-0.5-0.8-1c-0.1-0.6,0.5-1.2,0.9-1.2c0.6,0,1.3,0.7,1.4,1.2
			C65.3,99.6,64.6,100.1,63.9,100.1z"/>
		<path class="st0" d="M80,122.1c0,0.6-0.7,1.5-1.1,1.4c-1-0.1-0.5-1-0.7-1.5c-0.2-0.5,0.4-0.9,1.1-0.9
			C79.9,121.1,80,121.5,80,122.1z"/>
		<path class="st0" d="M21.7,120.3c0.5,0,1.1,0.6,0.9,1c-0.2,0.5-0.6,0.8-0.9,1.2c-0.4-0.3-1-0.6-1.1-0.9
			C20.4,121,21.1,120.3,21.7,120.3z"/>
		<path class="st0" d="M84.7,41.9c-0.5,0-1.1-0.2-0.9-0.8c0.2-0.5,0.6-1,1-1.3c0.4-0.2,1.1,0.5,1.1,1C86,41.3,85.3,42,84.7,41.9z"/>
		<path class="st0" d="M66.6,84.8c0,0.9-1.1,1.6-1.6,1.3c-0.9-0.6,0-1.1,0.1-1.7c0.1-0.4,0.5-0.8,0.9-0.5
			C66.3,84.1,66.5,84.6,66.6,84.8z"/>
		<path class="st0" d="M55.8,117.2c0,0.5-0.1,1-0.8,1c-0.5,0-1.3-0.7-1.3-1.1c0-0.4,0.7-0.9,1.3-0.9
			C55.7,116.2,55.9,116.5,55.8,117.2z"/>
		<path class="st0" d="M34.7,104.8c0.1-0.1,0.4-0.4,0.6-0.4c0.5,0.2,1.1,0.4,1.5,0.7c0.2,0.1,0.2,0.6,0.1,0.8
			c-0.1,0.2-0.4,0.3-0.7,0.3C35.6,106.3,34.7,105.6,34.7,104.8z"/>
		<path class="st0" d="M66.7,31.1c0.8,0.2,1.6,0,1.7,0.9c0.1,0.5-0.6,0.9-1.2,0.9c-0.5,0-1-0.5-0.9-1C66.3,31.6,66.6,31.4,66.7,31.1
			z"/>
		<path class="st0" d="M40.4,43.4c0.5-0.3,0.9-0.7,1.1-0.7c0.4,0.2,0.9,0.6,1.2,1c0.2,0.4-0.5,1.1-1,0.9
			C41.2,44.5,40.9,43.9,40.4,43.4z"/>
		<path class="st0" d="M102.8,55.7c0.8,0,1.5,0.5,1.5,1.1c0,0.8-0.8,0.8-1.1,0.7c-0.4-0.1-0.7-0.6-0.9-1
			C102.2,56.3,102.7,55.9,102.8,55.7z"/>
		<path class="st0" d="M105.1,65.1c0-0.4,0.1-0.8,0.7-0.8c0.5,0,1.2,0.9,1,1.3c-0.1,0.3-0.5,0.6-0.8,0.6
			C105.4,66.3,105,65.8,105.1,65.1z"/>
		<path class="st0" d="M87.5,71.5c-0.3-0.6,0.1-0.8,0.6-0.9c0.5-0.1,1,0.5,0.9,1.2c-0.1,0.3-0.5,0.8-0.8,0.8
			C87.6,72.7,87.4,72.2,87.5,71.5z"/>
		<path class="st0" d="M60.5,14.6c0.3,0.4,0.7,0.8,1.1,1.3c0,0-0.6,0.7-0.7,0.6c-0.5-0.2-1-0.5-1.3-0.9
			C59.3,15.3,59.8,14.7,60.5,14.6z"/>
		<path class="st0" d="M100.4,31.4c-0.9,0-1.6-0.5-1.4-0.9c0.1-0.3,0.5-0.6,0.8-0.6c0.5,0,1.2-0.1,1.3,0.7
			C101,30.9,100.5,31.2,100.4,31.4z"/>
		<path class="st0" d="M106.9,109.4c0.5,0.1,1.1,0.2,0.9,0.8c-0.1,0.4-0.7,0.7-1.2,1c0,0-0.5-0.4-0.5-0.6
			C106.1,110.1,106.1,109.4,106.9,109.4z"/>
		<path class="st0" d="M95,119.5c-0.6-0.2-1.3-0.2-1.3-0.9c0-0.7,0.7-0.7,1.1-0.7c0.7-0.1,0.7,0.5,0.7,0.9
			C95.5,119,95.2,119.3,95,119.5z"/>
		<path class="st0" d="M127.4,84.4c0.4-0.4,0.5-1.5,1.5-0.9c0.2,0.2,0.3,1,0.1,1.4C128.8,85.3,128.2,85.1,127.4,84.4z"/>
		<path class="st0" d="M80.9,80.5c0.3-0.2,0.6-0.6,0.8-0.5c0.4,0.1,0.7,0.5,1,0.7c-0.3,0.2-0.6,0.6-1,0.7c-0.2,0.1-0.5-0.3-0.8-0.5
			C80.9,80.8,80.9,80.7,80.9,80.5z"/>
		<path class="st0" d="M48.4,31.7c-0.1-0.1-0.4-0.5-0.4-0.8c0.1-0.3,0.5-0.6,0.9-0.7c0.1,0,0.6,0.4,0.6,0.7
			C49.6,31.3,49.4,31.8,48.4,31.7z"/>
		<path class="st0" d="M29.5,47.5c-0.4-0.5-0.8-0.8-0.8-1c-0.1-0.6,0.5-0.8,1-0.8c0.2,0,0.7,0.5,0.7,0.6
			C30.2,46.7,29.9,47,29.5,47.5z"/>
		<path class="st0" d="M43,106.4c-0.4,0.3-0.7,0.7-1,0.7c-0.3-0.1-0.7-0.4-0.7-0.7c0-0.4,0.2-1,0.8-0.9
			C42.4,105.6,42.6,106,43,106.4z"/>
		<path class="st0" d="M124.2,103.3c-0.2-0.2-0.6-0.5-0.5-0.7c0.1-0.3,0.4-0.6,0.7-0.9c0.3,0.3,0.7,0.5,0.8,0.8
			c0.1,0.5-0.2,0.8-0.8,0.6C124.3,103.2,124.3,103.2,124.2,103.3z"/>
		<path class="st0" d="M117,99.4c0.5-0.3,0.8-0.6,1.2-0.6c0.1,0,0.5,0.4,0.5,0.7c0,0.4-0.1,1-0.7,0.9
			C117.7,100.2,117.5,99.8,117,99.4z"/>
		<path class="st0" d="M79.6,63.8c0.3,0.4,0.6,0.8,0.5,0.9c-0.2,0.3-0.5,0.6-0.8,0.7c-0.2,0-0.5-0.4-0.7-0.7
			C78.8,64.5,79.1,64.3,79.6,63.8z"/>
		<path class="st0" d="M59.7,72.2c0.2-0.4,0.3-0.8,0.6-1.1c0.1-0.1,0.6-0.1,0.7,0.1c0.1,0.3,0.3,0.8,0.1,0.9
			c-0.3,0.3-0.7,0.3-1.1,0.4C59.9,72.5,59.8,72.4,59.7,72.2z"/>
		<path class="st0" d="M70.9,66.1c-0.3-0.4-0.8-0.7-0.7-0.9c0.1-0.3,0.5-0.6,0.7-0.7c0.2,0,0.5,0.4,0.8,0.6
			C71.5,65.4,71.2,65.7,70.9,66.1z"/>
		<path class="st0" d="M102.5,108.7c-0.5,0.4-0.8,0.7-1.1,0.9c-0.1,0-0.6-0.5-0.6-0.6c0.1-0.3,0.4-0.7,0.7-0.8
			C101.7,108.1,102,108.4,102.5,108.7z"/>
		<path class="st0" d="M90,63.2c0.4,0.5,0.6,0.8,0.8,1.1c-0.3,0.2-0.5,0.5-0.8,0.5c-0.3,0-0.7-0.3-0.7-0.6
			C89.3,64,89.6,63.7,90,63.2z"/>
		<path class="st0" d="M82.6,101.7c0.8,0.1,0.9,0.5,0.8,0.9c0,0.2-0.4,0.4-0.6,0.6c-0.3-0.3-0.6-0.6-0.8-0.9
			C82,102.1,82.4,101.8,82.6,101.7z"/>
		<path class="st0" d="M47.3,68.4c0.3,0.4,0.7,0.7,0.7,0.9c-0.1,0.3-0.4,0.5-0.7,0.6c-0.5,0.1-0.8-0.2-0.7-0.7
			C46.6,68.9,46.9,68.7,47.3,68.4z"/>
		<path class="st0" d="M92.6,81.7c0.3,0.5,0.7,0.7,0.7,1c0,0.2-0.4,0.4-0.6,0.6c-0.3-0.3-0.6-0.5-0.7-0.8
			C91.9,82.4,92.3,82.1,92.6,81.7z"/>
		<path class="st0" d="M84.9,22.2c0.4,0.5,0.6,0.7,0.8,1c-0.3,0.2-0.5,0.5-0.8,0.6c-0.2,0-0.7-0.4-0.6-0.5
			C84.3,22.9,84.6,22.6,84.9,22.2z"/>
		<path class="st0" d="M60.4,59.8c0.3,0.5,0.6,0.8,0.6,0.9c-0.2,0.3-0.5,0.6-0.8,0.8c-0.1,0-0.6-0.4-0.6-0.5
			C59.7,60.6,60,60.3,60.4,59.8z"/>
		<path class="st0" d="M58.3,77.2c-0.3-0.4-0.6-0.7-0.6-1c0-0.2,0.5-0.6,0.6-0.5c0.3,0.2,0.6,0.5,0.9,0.7
			C58.9,76.6,58.7,76.8,58.3,77.2z"/>
		<path class="st0" d="M69.7,17.3c0.2,0.3,0.5,0.6,0.5,0.8c0,0.3-0.4,0.5-0.6,0.7c-0.2-0.2-0.6-0.4-0.6-0.7c0-0.3,0.2-0.6,0.4-0.9
			C69.5,17.3,69.6,17.3,69.7,17.3z"/>
		<path class="st0" d="M33.4,100.8c0.1,0.3,0.4,0.6,0.4,0.7c-0.1,0.3-0.4,0.5-0.7,0.6c-0.1,0-0.6-0.4-0.6-0.6
			c0.1-0.3,0.4-0.6,0.6-0.8C33.2,100.8,33.3,100.8,33.4,100.8z"/>
	</g>
</g>
<g id="weed">
	<g>
		<path class="st1" d="M55.5,31.2c0,0-0.3-2.9-1.2-3.9s-4.1-3.8-4.1-3.8s4.8,2.5,5.9,4.6c0,0-0.8-3.5-1.2-4.7c0,0,3.1,4.4,2.8,7.2
			L55.5,31.2z"/>
		<path class="st1" d="M29.1,74.9c0,0-9.3,1.5-13.5,0.4c0,0,4.7,2.2,6.9,2.2c0,0-1.4,2.4-4.5,2.2c0,0,5,1,7,0.1c0,0-3.4,4.3-6,4.9
			l5.6-1.2c0,0-2.5,3-2.6,5.2c0,0,7.8-4.4,9.7-4.8c0,0-1-2.1-1.7-4.3C29.4,77.8,29.1,74.9,29.1,74.9z"/>
		<path class="st1" d="M26.8,70.7c0,0-2.8-1-4.1-0.6c-1.3,0.4-6.4,2.2-6.4,2.2s5.5-3.5,7.8-3.5c0,0-4.7-0.6-5.9-0.7
			c0,0,6.4-1.1,8.9,0.4L26.8,70.7z"/>
		<path class="st1" d="M60,109.2c0,0-0.8,9.2-3.5,10.4c0,0,1.7-2.2,1.9-4.3c0.2-1.8,0.7-5.5,1.1-6.3L60,109.2z"/>
		<path class="st1" d="M66.1,110.1c0,0-1.1,4.1-0.8,5.4c0.4,1.3,1.9,5.3,1.9,5.3S64,116.4,64,114c0,0-0.9,3.5-1,4.7
			c0,0-0.7-6.7,0.9-9.1L66.1,110.1z"/>
		<path class="st1" d="M108.9,70.2c0,0,7.7-0.3,11.8-2.5c0,0-4.5,3.4-6.8,4c0,0,2.1,1.9,5.4,0.9c0,0-5.1,2.4-7.5,2
			c0,0,4.7,3.3,7.7,3.1l-6.3,0.4c0,0,3.4,2.2,4.1,4.4c0,0-6.8-2.8-8.8-2.7c0,0,0.6-2.3,0.8-4.6C109.4,73.2,108.9,70.2,108.9,70.2z"
			/>
		<path class="st1" d="M107.9,81.9c0,0,7.7,1.1,8.8,3.9c0,0-2.2-1.8-4.2-2.1c-1.8-0.2-4.1-0.8-4.8-1.2L107.9,81.9z"/>
		<path class="st1" d="M75.8,29.4c0,0,1.3-7.6,0.1-12.1c0,0,2.3,5.2,2.4,7.5c0,0,2.3-1.6,2-5.1c0,0,1.2,5.5,0.3,7.8
			c0,0,4.2-3.8,4.7-6.8l-1,6.2c0,0,2.9-2.8,5.2-3.1c0,0-4.3,6-4.6,8c0,0-2.1-1.1-4.3-1.8C78.7,29.6,75.8,29.4,75.8,29.4z"/>
		<path class="st1" d="M88.6,33.5c0,0,1.9-7.6,4.7-8.4c0,0-2.1,2-2.5,4c-0.4,1.8-1.2,4-1.7,4.7L88.6,33.5z"/>
		<path class="st1" d="M92.7,36.6c0,0,2.9-2.6,3.2-4c0.3-1.3,0.8-5.5,0.8-5.5s0.8,5.4-0.3,7.5c0,0,2.4-2.7,3.1-3.7
			c0,0-2.4,5.8-4.9,7.2L92.7,36.6z"/>
	</g>
</g>
<g id="hole">
	<circle class="st2" cx="68.2" cy="69.1" r="41.7"/>
</g>
<g id="spiral">
	<path class="st17" d="M86.2,102.8c0,0-24.3,5.7-30.5,1.7c-6.3-4-19-12.7-20.7-19.5s-7.8-19.8-2.1-28.7s13.8-21.6,21.7-23.2
		c7.9-1.6,27.5-1.1,32.5,3c5,4.1,15,13.9,16.7,20.1c1.7,6.2,3.6,18.5,0.7,24.2c-2.9,5.7-27.5,14.3-32.5,10.3
		C66.9,86.6,51,79.5,52,73.6c1-5.9,4.9-17.5,9.2-19.7s10.5-2.6,12.8,2.3c2.2,4.9,3.5,17.2,0.1,20.1c-3.4,2.9-10.3-5.4-10.3-5.4
		s7.9,2.8,8.5,1.1s-2.1-16.2-4.2-15.9c-2,0.3-10.7,8.9-10.1,13.3s5.7,12.4,10,14.3c4.2,1.9,16.4,3.1,19.7,0.4
		c3.3-2.7,9.6-15.8,7.9-18.5c-1.8-2.7-12.6-17.7-15-19.3C78,44.7,67.1,39.3,65,41c-2.1,1.7-14.2,10.6-15.6,13.8
		c-1.4,3.2-6.3,16-4.6,19.5c1.7,3.5,8.3,11.7,11.4,13.6c3.1,1.9,12.8,8.9,16.1,8.9S93.2,93,97,90.4L86.2,102.8z"/>
</g>
<g id="inner-sparkle">
	<g class="st31">
		<path class="st32" d="M76.4,72.2c0-0.6,0.5-0.9,0.9-0.7c0.2,0.1,0.4,0.3,0.6,0.5c0.1,0.2,0.2,0.4,0.4,0.5c0.4,0.3,0,0.6-0.1,0.9
			c0,0.1-0.5,0.3-0.6,0.2c-0.5-0.3-1-0.6-1.2-1.1C76.4,72.3,76.4,72.2,76.4,72.2z"/>
		<path class="st32" d="M78.6,63.3c-0.3-0.1-0.7-0.3-0.9-0.5c-0.4-0.3-0.2-0.7,0.2-0.9c0.2-0.1,0.4-0.2,0.6-0.4
			c0.3-0.2,0.6-0.1,0.8,0.2c0.2,0.2,0.2,0.6,0.2,0.9C79.4,63.1,79,63.2,78.6,63.3z"/>
		<path class="st32" d="M57.6,54c0,0.4-0.4,0.9-0.8,0.9c-0.8,0-1.1-0.3-1.1-0.8c0-0.4,0.7-0.9,1.2-0.9C57.3,53.1,57.6,53.5,57.6,54z
			"/>
		<path class="st32" d="M66,50.4c0.5,0,0.8,0.2,0.8,0.6c0,0.9-0.1,1.1-0.7,1.1c-0.6,0-1-0.3-1-0.9C65.2,50.6,65.4,50.4,66,50.4z"/>
		<path class="st32" d="M84.1,90.4c0-0.3-0.2-0.8,0.3-0.8c0.2,0,0.5,0.1,0.5,0.2c0.2,0.3,0,0.5-0.4,0.6c0.3,0.3,0.4,0.7,0.2,1
			c-0.1,0.2-0.5,0.2-0.8,0.2c-0.3-0.1-0.6-0.3-0.6-0.7C83.5,90.5,83.7,90.3,84.1,90.4z"/>
		<path class="st32" d="M57.7,90.9c-0.5,0-1-0.4-1-0.8c0-0.4,0.5-0.8,1-0.8c0.5,0,0.8,0.5,0.8,1C58.5,90.6,58.1,91,57.7,90.9z"/>
		<path class="st32" d="M68.5,70.6c0,0.4-0.1,0.8-0.6,0.8c-0.1,0-0.2,0-0.2,0.1c-0.2,0.2-0.4,0.3-0.6,0.1c-0.2-0.2-0.5-0.4-0.1-0.8
			c0.1-0.1,0.1-0.3,0.2-0.4c0.1-0.5,0.5-0.4,0.9-0.4C68.3,70,68.5,70.2,68.5,70.6z"/>
		<path class="st32" d="M57.9,52.1c0,0.4-0.5,0.9-0.8,0.9c-0.4,0-0.9-0.4-0.9-0.7c0-0.5,0.5-1,0.9-1C57.5,51.3,57.9,51.7,57.9,52.1z
			"/>
		<path class="st32" d="M45.9,84.5c-0.5,0-0.9-0.3-0.9-0.7c0-0.5,0.3-0.8,0.9-0.8c0.4,0,0.8,0.4,0.8,0.8
			C46.8,84.1,46.3,84.5,45.9,84.5z"/>
		<path class="st32" d="M84.1,49.7c0.4,0,0.7,0.2,0.7,0.7c0.1,0.6-0.1,0.8-0.5,0.8c-0.8,0.1-1,0-1-0.6C83.3,50,83.5,49.8,84.1,49.7z
			"/>
		<path class="st32" d="M72.3,42.8c-0.1,0.1-0.1,0.3-0.2,0.3c-0.2,0.2-1.1,0-1.3-0.3c-0.1-0.3,0.2-1.2,0.4-1.2
			c0.3,0,0.6,0.2,0.8,0.4C72.3,42.2,72.3,42.6,72.3,42.8z"/>
		<path class="st32" d="M47.9,85.2c0,0.3-0.5,0.6-0.8,0.6c-0.4,0-0.8-0.5-0.7-0.9c0-0.4,0.3-0.6,0.8-0.6
			C47.6,84.3,48,84.7,47.9,85.2z"/>
		<path class="st32" d="M56.3,78.7c0,0.4-0.3,0.6-0.7,0.7c-0.5,0-0.9-0.3-0.9-0.8c0-0.3,0.4-0.7,0.7-0.7
			C56,77.8,56.3,78.1,56.3,78.7z"/>
		<path class="st32" d="M56.4,34.9c-0.1,0-0.2-0.1-0.3-0.3c-0.1-0.2-0.2-0.5-0.1-0.6c0.1-0.2,0.4-0.3,0.6-0.3c0.2,0,0.4,0.2,0.5,0.4
			c0.1,0.3,0.1,0.7,0,1c0,0.2-0.2,0.4-0.4,0.5c0,0-0.3,0-0.3-0.1C56.4,35.4,56.4,35.1,56.4,34.9z"/>
		<path class="st32" d="M78.2,102.3c-0.5,0-0.6-0.2-0.4-0.6c0.1-0.2,0.3-0.4,0.4-0.7c0.2-0.4,0.6-0.3,0.8-0.1
			c0.3,0.2,0.2,0.5,0.1,0.8C78.8,102,78.6,102.4,78.2,102.3z"/>
		<path class="st32" d="M54,56.5c0,0.4-0.4,0.8-0.8,0.7c-0.4,0-0.8-0.5-0.6-0.8c0.1-0.3,0.4-0.6,0.6-0.6C53.7,55.7,54,56.1,54,56.5z
			"/>
		<path class="st32" d="M47.8,81.6c0,0.4-0.3,0.7-0.7,0.7c-0.3,0-0.8-0.5-0.8-0.8c0-0.3,0.5-0.6,0.9-0.6
			C47.6,80.9,47.8,81.2,47.8,81.6z"/>
		<path class="st32" d="M95.1,48c0,0.3-0.4,0.9-0.6,0.9c-0.4,0-0.8-0.5-0.8-0.9c0-0.4,0.2-0.6,0.6-0.6C94.6,47.3,95.1,47.8,95.1,48z
			"/>
		<path class="st32" d="M65.6,73.8c-0.3,0-0.7-0.4-0.7-0.7c0-0.4,0.2-0.7,0.6-0.7c0.4,0,0.8,0.3,0.8,0.7
			C66.2,73.4,65.9,73.7,65.6,73.8z"/>
		<path class="st32" d="M69.2,90.6c0.1,0.4-0.2,0.5-0.5,0.5c-0.4,0-0.8-0.3-0.8-0.7c0.1-0.3,0.1-0.7,0.5-0.7
			C68.9,89.7,69.2,90.1,69.2,90.6z"/>
		<path class="st32" d="M54.9,87.1c-0.1-0.1-0.5-0.3-0.6-0.6c-0.1-0.2,0.4-0.7,0.8-0.6c0.3,0,0.6,0.3,0.7,0.5
			C56,86.8,55.6,87.1,54.9,87.1z"/>
		<path class="st32" d="M70.7,98.2c0,0.4-0.4,1-0.7,0.9c-0.3-0.2-0.6-0.4-0.7-0.7c-0.1-0.2,0.4-0.6,0.8-0.6
			C70.4,97.8,70.7,97.8,70.7,98.2z"/>
		<path class="st32" d="M50.2,66.6c0-0.4,0.3-0.4,0.6-0.5c0.3-0.1,0.7,0.3,0.7,0.5c0,0.3-0.4,0.8-0.7,0.8
			C50.5,67.4,50.2,67,50.2,66.6z"/>
		<path class="st32" d="M37.4,75.9c-0.4,0-0.9-0.4-0.8-0.7c0.1-0.6,0.6-0.3,0.9-0.4c0.3-0.1,0.5,0.2,0.5,0.6
			C38,75.8,37.7,75.9,37.4,75.9z"/>
		<path class="st32" d="M38.4,42c0,0.3-0.4,0.6-0.6,0.5c-0.3-0.1-0.5-0.4-0.7-0.6c0.2-0.2,0.3-0.6,0.5-0.6
			C38,41.3,38.4,41.7,38.4,42z"/>
		<path class="st32" d="M84,78.7c0-0.3,0.1-0.6,0.5-0.5c0.3,0.1,0.6,0.3,0.7,0.6c0.1,0.2-0.3,0.6-0.6,0.6C84.3,79.4,83.9,79,84,78.7
			z"/>
		<path class="st32" d="M59.1,68.1c-0.5,0-0.9-0.6-0.7-0.9c0.3-0.5,0.7,0,1,0.1c0.2,0,0.5,0.3,0.3,0.5C59.5,68,59.2,68.1,59.1,68.1z
			"/>
		<path class="st32" d="M40.2,61.9c-0.3,0-0.6,0-0.6-0.4c0-0.3,0.4-0.8,0.6-0.7c0.2,0,0.5,0.4,0.5,0.8
			C40.8,61.8,40.6,61.9,40.2,61.9z"/>
		<path class="st32" d="M47.4,49.6c0.1,0.1,0.3,0.3,0.2,0.4c-0.1,0.3-0.2,0.6-0.4,0.9C47.2,51,46.9,51,46.8,51
			c-0.1-0.1-0.2-0.3-0.2-0.4C46.6,50.1,47,49.6,47.4,49.6z"/>
		<path class="st32" d="M90.2,68.2c-0.1,0.4,0,0.9-0.5,1c-0.3,0-0.5-0.3-0.5-0.7c0-0.3,0.3-0.6,0.6-0.5C90,68,90.1,68.1,90.2,68.2z"
			/>
		<path class="st32" d="M83.1,52.9c0.2,0.3,0.4,0.5,0.4,0.6c-0.1,0.3-0.3,0.5-0.6,0.7c-0.2,0.1-0.6-0.3-0.5-0.6
			C82.5,53.4,82.8,53.2,83.1,52.9z"/>
		<path class="st32" d="M75.9,89.2c0,0.5-0.3,0.9-0.6,0.9c-0.4,0-0.5-0.4-0.4-0.6c0.1-0.2,0.4-0.4,0.6-0.5
			C75.6,88.8,75.9,89.1,75.9,89.2z"/>
		<path class="st32" d="M70.5,90.5c0.3,0,0.5,0,0.5,0.4c0,0.3-0.5,0.7-0.8,0.6c-0.2-0.1-0.3-0.3-0.4-0.5
			C69.8,90.7,70.1,90.4,70.5,90.5z"/>
		<path class="st32" d="M66.8,80.3c0.4-0.2,0.5,0,0.5,0.4c0,0.3-0.3,0.6-0.7,0.5c-0.2,0-0.4-0.3-0.5-0.4
			C66.1,80.3,66.4,80.2,66.8,80.3z"/>
		<path class="st32" d="M99.8,64.6c-0.2,0.2-0.5,0.4-0.8,0.6c0,0-0.4-0.3-0.3-0.4c0.1-0.3,0.3-0.6,0.5-0.8
			C99.4,63.9,99.8,64.2,99.8,64.6z"/>
		<path class="st32" d="M90.1,87.8c0-0.5,0.3-0.9,0.5-0.8c0.1,0.1,0.3,0.3,0.3,0.4c0,0.3,0,0.7-0.4,0.7
			C90.4,88.1,90.2,87.8,90.1,87.8z"/>
		<path class="st32" d="M44.8,91.5c0,0.3-0.1,0.6-0.5,0.5c-0.2-0.1-0.4-0.4-0.6-0.7c0,0,0.2-0.3,0.4-0.3
			C44.4,91.1,44.7,91.1,44.8,91.5z"/>
		<path class="st32" d="M38.9,84.6c0.1-0.4,0.1-0.8,0.5-0.7c0.4,0,0.4,0.4,0.4,0.7c0.1,0.4-0.3,0.4-0.5,0.4
			C39.2,84.9,39,84.7,38.9,84.6z"/>
		<path class="st32" d="M59.3,103.5c0.2,0.3,0.9,0.3,0.5,0.8c-0.1,0.1-0.6,0.1-0.8,0.1C58.7,104.3,58.9,103.9,59.3,103.5z"/>
		<path class="st32" d="M61.5,76.5c0.1,0.2,0.3,0.4,0.3,0.5c0,0.2-0.3,0.4-0.4,0.6c-0.1-0.2-0.4-0.4-0.4-0.6c0-0.1,0.2-0.3,0.3-0.5
			C61.4,76.5,61.5,76.5,61.5,76.5z"/>
		<path class="st32" d="M89.9,57.6c0.1,0,0.3-0.3,0.4-0.2c0.2,0.1,0.4,0.3,0.4,0.5c0,0.1-0.3,0.4-0.4,0.4
			C90.1,58.3,89.8,58.1,89.9,57.6z"/>
		<path class="st32" d="M80.7,46.6c0.3-0.2,0.4-0.5,0.6-0.5c0.3,0,0.5,0.3,0.4,0.6c0,0.1-0.3,0.4-0.4,0.4C81.2,47,81,46.8,80.7,46.6
			z"/>
		<path class="st32" d="M46.5,54.4c-0.2-0.3-0.4-0.4-0.4-0.6c0-0.2,0.3-0.4,0.4-0.4c0.3,0,0.6,0.1,0.5,0.5
			C47,54.1,46.8,54.2,46.5,54.4z"/>
		<path class="st32" d="M48.3,101.6c0.1-0.1,0.3-0.3,0.4-0.3c0.2,0.1,0.3,0.3,0.5,0.4c-0.2,0.2-0.3,0.4-0.5,0.4
			C48.5,102.2,48.3,102,48.3,101.6C48.4,101.7,48.4,101.6,48.3,101.6z"/>
		<path class="st32" d="M50.6,97.4c0.2,0.3,0.3,0.5,0.4,0.7c0,0.1-0.3,0.3-0.4,0.3c-0.2,0-0.6-0.1-0.5-0.4
			C50.1,97.8,50.3,97.7,50.6,97.4z"/>
		<path class="st32" d="M71.2,75.7C71,75.8,70.8,76,70.7,76c-0.2-0.1-0.4-0.3-0.4-0.5c0-0.1,0.2-0.3,0.4-0.4
			C70.8,75.2,71,75.4,71.2,75.7z"/>
		<path class="st32" d="M66.4,64.1c0.2,0.1,0.5,0.2,0.6,0.3c0.1,0.1,0,0.4,0,0.4c-0.2,0.1-0.5,0.2-0.5,0.1c-0.1-0.1-0.2-0.4-0.3-0.6
			C66.2,64.2,66.3,64.2,66.4,64.1z"/>
		<path class="st32" d="M69.9,70.6c0.2-0.2,0.4-0.4,0.5-0.4c0.2,0.1,0.4,0.3,0.4,0.4c0,0.1-0.2,0.3-0.3,0.5
			C70.3,71,70.2,70.8,69.9,70.6z"/>
		<path class="st32" d="M45.2,89c-0.2-0.3-0.4-0.5-0.5-0.6c0-0.1,0.3-0.4,0.3-0.3c0.2,0.1,0.4,0.2,0.5,0.4
			C45.5,88.5,45.3,88.7,45.2,89z"/>
		<path class="st32" d="M71.6,81.7c-0.3,0.2-0.5,0.4-0.6,0.5c-0.1-0.1-0.3-0.3-0.3-0.4c0-0.2,0.2-0.4,0.3-0.4
			C71.1,81.3,71.3,81.5,71.6,81.7z"/>
		<path class="st32" d="M49.3,77.4c0,0.4-0.3,0.5-0.5,0.5c-0.1,0-0.2-0.2-0.3-0.3c0.2-0.2,0.3-0.3,0.5-0.4
			C49,77.1,49.2,77.3,49.3,77.4z"/>
		<path class="st32" d="M68.6,56.9c-0.2,0.2-0.4,0.4-0.5,0.4c-0.2,0-0.3-0.3-0.4-0.4c-0.1-0.3,0.1-0.5,0.4-0.4
			C68.3,56.5,68.4,56.7,68.6,56.9z"/>
		<path class="st32" d="M60.9,83.2c-0.3,0.2-0.4,0.4-0.6,0.4c-0.1,0-0.2-0.2-0.4-0.3c0.2-0.2,0.3-0.3,0.5-0.4
			C60.4,82.9,60.6,83.1,60.9,83.2z"/>
		<path class="st32" d="M95.4,78.8c-0.3,0.2-0.4,0.3-0.6,0.4c-0.1-0.2-0.3-0.3-0.3-0.5c0-0.1,0.2-0.4,0.3-0.4
			C95,78.4,95.2,78.6,95.4,78.8z"/>
		<path class="st32" d="M73.6,64.5c-0.3,0.2-0.5,0.4-0.5,0.3c-0.2-0.1-0.3-0.3-0.4-0.5c0-0.1,0.2-0.4,0.3-0.3
			C73.1,64.1,73.3,64.3,73.6,64.5z"/>
		<path class="st32" d="M63.5,63.3c0.3-0.2,0.4-0.3,0.6-0.4c0.1,0,0.3,0.3,0.3,0.3c-0.1,0.2-0.3,0.3-0.4,0.5
			C63.8,63.7,63.7,63.6,63.5,63.3z"/>
		<path class="st32" d="M98.3,70c-0.2,0.1-0.3,0.3-0.5,0.3c-0.1,0-0.3-0.2-0.4-0.3c0.1-0.1,0.3-0.3,0.4-0.3c0.2,0,0.3,0.1,0.5,0.2
			C98.3,69.8,98.3,69.9,98.3,70z"/>
		<path class="st32" d="M49.8,48.8c-0.1,0.1-0.3,0.2-0.4,0.2C49.2,49,49,48.8,49,48.6c0-0.1,0.2-0.3,0.3-0.3c0.2,0,0.3,0.2,0.5,0.3
			C49.8,48.7,49.8,48.8,49.8,48.8z"/>
	</g>
</g>
</svg>
