<svg xmlns="http://www.w3.org/2000/svg" viewBox="0 0 136.4 138.1"><title>rabbit-hole3</title><g id="outer-sparkle"><path d="M73.5,55c-1-.1-1.6-.9-1.2-1.6a2.8,2.8,0,0,1,.9-1,2.8,2.8,0,0,0,.9-.7c.4-.7,1,0,1.5.1a1.3,1.3,0,0,1,.3,1.1,4.1,4.1,0,0,1-1.9,2Z" fill="#7038a0"/><path d="M58.3,51.2a6,6,0,0,1-.8,1.6c-.5.6-1.2.4-1.5-.3a3.6,3.6,0,0,0-.7-1,1,1,0,0,1,.3-1.4,2.6,2.6,0,0,1,1.5-.4C57.9,49.8,58.1,50.4,58.3,51.2Z" fill="#7038a0"/><path d="M42.2,87.3a1.7,1.7,0,0,1,1.5,1.4c0,1.4-.5,1.9-1.4,1.9s-1.6-1.1-1.6-2A1.6,1.6,0,0,1,42.2,87.3Z" fill="#7038a0"/><path d="M36,72.8c0-.9.3-1.4,1-1.5s1.9.2,1.8,1.2-.5,1.8-1.5,1.7S36,73.8,36,72.8Z" fill="#7038a0"/><path d="M104.9,41.6c-.6,0-1.3.3-1.4-.5a1.3,1.3,0,0,1,.4-1c.5-.3.9.1,1.1.7a1.3,1.3,0,0,1,1.8-.3,1.8,1.8,0,0,1,.3,1.3,1.2,1.2,0,0,1-1.2,1C105.2,42.7,104.8,42.3,104.9,41.6Z" fill="#7038a0"/><path d="M105.9,87.1c-.1.9-.8,1.8-1.5,1.8a1.8,1.8,0,0,1-1.3-1.7,1.7,1.7,0,0,1,1.7-1.5C105.3,85.7,105.9,86.5,105.9,87.1Z" fill="#7038a0"/><path d="M70.8,68.6c.8,0,1.3.2,1.4,1.1s.1.3.2.3.5.8.1,1.1-.8.8-1.3.2-.5-.2-.8-.3-.7-.9-.7-1.5A1,1,0,0,1,70.8,68.6Z" fill="#7038a0"/><path d="M39,86.8c.7.1,1.6.8,1.6,1.4a1.6,1.6,0,0,1-1.3,1.5c-.8-.1-1.8-.9-1.7-1.6A1.5,1.5,0,0,1,39,86.8Z" fill="#7038a0"/><path d="M94.8,107.4c0,.8-.5,1.5-1.1,1.5s-1.5-.6-1.5-1.5a1.7,1.7,0,0,1,1.4-1.5A1.9,1.9,0,0,1,94.8,107.4Z" fill="#7038a0"/><path d="M34.9,41.7a1.2,1.2,0,0,1,1.2-1.2c1-.1,1.3.1,1.4.8s-.1,1.7-1,1.8S35,42.8,34.9,41.7Z" fill="#7038a0"/><path d="M23,62c.2.1.5.1.6.3s0,1.9-.4,2.1-2.2-.2-2.2-.7a2.4,2.4,0,0,1,.7-1.3C22,62.1,22.6,62.1,23,62Z" fill="#7038a0"/><path d="M96,103.9a1.5,1.5,0,0,1,1,1.5,1.4,1.4,0,0,1-1.5,1.2,1.2,1.2,0,0,1-1.1-1.3A1.5,1.5,0,0,1,96,103.9Z" fill="#7038a0"/><path d="M84.7,89.5a1.1,1.1,0,0,1,1.1,1.2,1.4,1.4,0,0,1-1.3,1.5A1.3,1.3,0,0,1,83.3,91,1.3,1.3,0,0,1,84.7,89.5Z" fill="#7038a0"/><path d="M9.3,89.4a2.2,2.2,0,0,1-.5.6c-.3.1-.8.3-.9.2a1.7,1.7,0,0,1-.6-1.1,1.1,1.1,0,0,1,.7-.8,3.3,3.3,0,0,1,1.7-.1c.4,0,.7.4,1,.7v.5Z" fill="#7038a0"/><path d="M125.5,51.9c0,.9-.4,1.1-1.1.7l-1.2-.7c-.7-.4-.5-1-.2-1.4s.8-.4,1.3-.1S125.5,51.1,125.5,51.9Z" fill="#7038a0"/><path d="M46.6,93.5a1.3,1.3,0,0,1,1.3,1.3c-.1.6-.9,1.3-1.5,1.1a2.1,2.1,0,0,1-1-1.1A1.1,1.1,0,0,1,46.6,93.5Z" fill="#7038a0"/><path d="M89.8,104.1a1.3,1.3,0,0,1,1.3,1.2,1.8,1.8,0,0,1-1.4,1.4c-.4,0-1-.9-1-1.7S89.1,104.2,89.8,104.1Z" fill="#7038a0"/><path d="M32,22.7c.6,0,1.5.7,1.5,1.1a1.6,1.6,0,0,1-1.6,1.3A1,1,0,0,1,30.8,24,1.9,1.9,0,0,1,32,22.7Z" fill="#7038a0"/><path d="M76.3,73.6A1.5,1.5,0,0,1,75,74.9a1.2,1.2,0,0,1-1.2-1c0-.8.5-1.4,1.2-1.3S76.3,73,76.3,73.6Z" fill="#7038a0"/><path d="M105.3,67.4c.7-.2.8.3.9.9s-.6,1.4-1.2,1.3-1.1-.1-1.2-.8S104.3,67.4,105.3,67.4Z" fill="#7038a0"/><path d="M99.3,91.9a3.3,3.3,0,0,1-1,1.1c-.4.2-1.2-.7-1.1-1.4a1.6,1.6,0,0,1,.9-1.2C98.7,90.1,99.3,90.8,99.3,91.9Z" fill="#7038a0"/><path d="M118.3,64.8c.7,0,1.8.7,1.6,1.1a3.7,3.7,0,0,1-1.2,1.3c-.4.2-1-.7-1-1.5S117.7,64.7,118.3,64.8Z" fill="#7038a0"/><path d="M63.9,100.1c-.7,0-.7-.5-.8-1a1,1,0,0,1,.9-1.2c.5.1,1.3.8,1.3,1.2S64.6,100.1,63.9,100.1Z" fill="#7038a0"/><path d="M80,122.1c-.1.6-.7,1.5-1.2,1.4s-.5-1-.7-1.5.4-.9,1.1-.9S80,121.5,80,122.1Z" fill="#7038a0"/><path d="M21.7,120.3c.5,0,1.1.6.9,1a4.1,4.1,0,0,1-1,1.3c-.3-.4-.9-.6-1-1S21.1,120.3,21.7,120.3Z" fill="#7038a0"/><path d="M84.7,41.9c-.5,0-1-.2-.8-.8a1.7,1.7,0,0,1,1-1.2c.4-.2,1.1.5,1.1.9A1.3,1.3,0,0,1,84.7,41.9Z" fill="#7038a0"/><path d="M66.6,84.8c0,.8-1.1,1.6-1.6,1.2s0-1.1.1-1.7.5-.8.9-.5A3.7,3.7,0,0,1,66.6,84.8Z" fill="#7038a0"/><path d="M55.8,117.2c0,.6,0,1.1-.7,1.1s-1.3-.8-1.3-1.2.7-.9,1.3-.9S55.9,116.5,55.8,117.2Z" fill="#7038a0"/><path d="M34.7,104.8c.2-.1.5-.4.7-.4l1.5.7a1.1,1.1,0,0,1,.1.8.8.8,0,0,1-.7.3A1.5,1.5,0,0,1,34.7,104.8Z" fill="#7038a0"/><path d="M66.7,31.1c.8.3,1.6.1,1.7,1s-.6.9-1.2.8a.9.9,0,0,1-.9-1C66.3,31.6,66.6,31.4,66.7,31.1Z" fill="#7038a0"/><path d="M40.4,43.4c.5-.3.9-.7,1.1-.6a2.4,2.4,0,0,1,1.1.9c.2.4-.5,1.1-1,.9S40.9,43.9,40.4,43.4Z" fill="#7038a0"/><path d="M102.8,55.7c.8,0,1.5.6,1.5,1.1s-.7.8-1.1.7a2.1,2.1,0,0,1-.9-1.1C102.2,56.3,102.7,55.9,102.8,55.7Z" fill="#7038a0"/><path d="M105.1,65.1c-.1-.4,0-.8.7-.8s1.1.9,1,1.4a1.2,1.2,0,0,1-.9.6C105.4,66.3,105,65.8,105.1,65.1Z" fill="#7038a0"/><path d="M87.5,71.5c-.2-.6.1-.8.7-.9a1,1,0,0,1,.9,1.2c-.1.4-.5.8-.8.8S87.4,72.2,87.5,71.5Z" fill="#7038a0"/><path d="M60.5,14.6a6.9,6.9,0,0,1,1.1,1.3c.1.1-.5.7-.6.6a4.2,4.2,0,0,1-1.4-.9C59.3,15.3,59.8,14.7,60.5,14.6Z" fill="#7038a0"/><path d="M100.4,31.4c-.9,0-1.6-.5-1.4-1s.5-.5.7-.5,1.3-.1,1.3.6S100.5,31.2,100.4,31.4Z" fill="#7038a0"/><path d="M106.9,109.4c.4.1,1.1.2.9.8s-.8.7-1.2,1-.5-.5-.5-.7S106.1,109.4,106.9,109.4Z" fill="#7038a0"/><path d="M95,119.5c-.6-.2-1.3-.2-1.3-.9s.7-.7,1.2-.8.6.6.6,1S95.2,119.3,95,119.5Z" fill="#7038a0"/><path d="M127.4,84.4c.5-.4.6-1.5,1.5-.9s.3.9.1,1.3S128.2,85.1,127.4,84.4Z" fill="#7038a0"/><path d="M80.9,80.5c.3-.1.6-.5.9-.5s.6.5.9.7-.6.7-.9.7-.6-.3-.9-.5Z" fill="#7038a0"/><path d="M48.4,31.7c0-.2-.4-.5-.3-.8a1.4,1.4,0,0,1,.8-.7c.1-.1.6.4.7.7S49.4,31.8,48.4,31.7Z" fill="#7038a0"/><path d="M29.5,47.5c-.4-.5-.8-.7-.8-1s.5-.8.9-.8a1.4,1.4,0,0,1,.7.6A3.5,3.5,0,0,1,29.5,47.5Z" fill="#7038a0"/><path d="M43,106.4c-.5.4-.8.8-1,.7a.8.8,0,0,1-.7-.7c0-.4.2-1,.8-.9S42.6,106,43,106.4Z" fill="#7038a0"/><path d="M124.2,103.3c-.2-.3-.6-.6-.5-.7s.4-.6.7-.9a2,2,0,0,1,.8.8c.1.5-.3.8-.9.6Z" fill="#7038a0"/><path d="M117,99.4l1.2-.7a1.3,1.3,0,0,1,.5.7c-.1.4-.1,1-.8.9S117.5,99.8,117,99.4Z" fill="#7038a0"/><path d="M79.6,63.8c.2.5.5.8.5.9s-.5.7-.8.7-.5-.4-.8-.6Z" fill="#7038a0"/><path d="M59.7,72.2a5.3,5.3,0,0,1,.6-1c0-.2.6-.1.7,0s.2.8.1.9a2.2,2.2,0,0,1-1.1.5Z" fill="#7038a0"/><path d="M70.9,66.1c-.4-.4-.8-.7-.7-.9a.9.9,0,0,1,.7-.6c.3,0,.5.3.8.5Z" fill="#7038a0"/><path d="M102.5,108.7a7.3,7.3,0,0,1-1.1.9,1.7,1.7,0,0,1-.6-.6c.2-.3.4-.7.7-.8S102,108.4,102.5,108.7Z" fill="#7038a0"/><path d="M90,63.2l.8,1.1c-.2.2-.5.5-.7.5a1,1,0,0,1-.8-.6C89.3,64,89.6,63.7,90,63.2Z" fill="#7038a0"/><path d="M82.6,101.7c.7,0,.9.4.8.8s-.4.4-.6.6-.6-.6-.7-.9S82.4,101.8,82.6,101.7Z" fill="#7038a0"/><path d="M47.3,68.4c.3.4.7.7.7.8a1.4,1.4,0,0,1-.8.7.6.6,0,0,1-.7-.7C46.6,68.9,46.9,68.7,47.3,68.4Z" fill="#7038a0"/><path d="M92.6,81.7a4.6,4.6,0,0,1,.7,1c0,.2-.4.4-.6.7a7.1,7.1,0,0,1-.7-.9C91.9,82.4,92.3,82.1,92.6,81.7Z" fill="#7038a0"/><path d="M84.9,22.2l.8.9-.9.6a1,1,0,0,1-.6-.5A4.6,4.6,0,0,1,84.9,22.2Z" fill="#7038a0"/><path d="M60.4,59.8c.3.5.6.8.5.9a1.8,1.8,0,0,1-.7.8,1.5,1.5,0,0,1-.6-.5A3.5,3.5,0,0,1,60.4,59.8Z" fill="#7038a0"/><path d="M58.3,77.2c-.3-.4-.6-.7-.6-1s.5-.6.6-.5a1.8,1.8,0,0,1,.8.7Z" fill="#7038a0"/><path d="M69.7,17.3c.2.3.5.6.5.8s-.3.5-.6.8-.5-.5-.5-.7.2-.6.3-.9Z" fill="#7038a0"/><path d="M33.4,100.8c.1.2.4.6.3.7a.9.9,0,0,1-.7.6c-.1.1-.6-.4-.5-.5s.3-.6.5-.8Z" fill="#7038a0"/></g><g id="weed"><path d="M55.5,31.2s-.3-2.9-1.2-3.9l-4.1-3.8S55,25.9,56.1,28c0,0-.8-3.5-1.2-4.6s3.1,4.4,2.8,7.2Z" fill="#22b573"/><path d="M29.1,74.9s-9.3,1.5-13.4.4c0,0,4.7,2.2,6.8,2.2A4.6,4.6,0,0,1,18,79.6s5,1.1,7.1.1c0,0-3.4,4.4-6.1,4.9l5.6-1.2s-2.5,3-2.6,5.3c0,0,7.8-4.4,9.6-4.8a38.9,38.9,0,0,1-1.7-4.3A36.3,36.3,0,0,1,29.1,74.9Z" fill="#22b573"/><path d="M26.8,70.7s-2.7-1-4-.6l-6.4,2.2s5.5-3.5,7.9-3.6l-6-.7s6.5-1.1,8.9.4Z" fill="#22b573"/><path d="M60,109.2s-.8,9.2-3.5,10.4a10.1,10.1,0,0,0,1.9-4.3c.2-1.8.7-5.5,1.1-6.2Z" fill="#22b573"/><path d="M66.1,110.1s-1.1,4.1-.8,5.5,1.9,5.2,1.9,5.2S64,116.4,64,114c0,0-.9,3.5-1,4.7s-.7-6.7.9-9Z" fill="#22b573"/><path d="M108.9,70.2s7.7-.3,11.8-2.5c0,0-4.5,3.4-6.8,4a5.8,5.8,0,0,0,5.4.9s-5.1,2.3-7.5,2c0,0,4.7,3.2,7.7,3.1l-6.3.3s3.4,2.2,4.1,4.4c0,0-6.8-2.9-8.8-2.8a38,38,0,0,0,.7-4.5A23.4,23.4,0,0,0,108.9,70.2Z" fill="#22b573"/><path d="M107.9,81.9s7.7,1.1,8.8,3.8a10,10,0,0,0-4.2-2.1,19.6,19.6,0,0,1-4.8-1.2Z" fill="#22b573"/><path d="M75.8,29.4s1.3-7.6.1-12.1c0,0,2.3,5.2,2.4,7.5a5.4,5.4,0,0,0,2-5s1.2,5.5.3,7.8c0,0,4.3-3.9,4.7-6.9l-1,6.3s2.9-2.9,5.2-3.1c0,0-4.3,6-4.6,8a30.7,30.7,0,0,0-4.3-1.8A32.4,32.4,0,0,0,75.8,29.4Z" fill="#22b573"/><path d="M88.6,33.5s1.9-7.6,4.8-8.4A9.7,9.7,0,0,0,90.8,29a17.5,17.5,0,0,1-1.7,4.7Z" fill="#22b573"/><path d="M92.7,36.6s2.9-2.7,3.1-4,.8-5.6.8-5.6.8,5.4-.3,7.5c0,0,2.4-2.7,3.1-3.7s-2.5,5.8-4.9,7.2Z" fill="#22b573"/></g><g id="hole"><circle cx="68.2" cy="69.1" r="41.7" fill="#8152b2"/></g><g id="spiral"><path d="M86.2,102.8s-24.2,5.7-30.5,1.7S36.7,91.8,35,85s-7.8-19.8-2.1-28.7S46.6,34.7,54.6,33.1,82,32,87,36.1,102,50,103.7,56.2s3.6,18.4.7,24.2S76.9,94.7,71.9,90.6,51,79.5,52,73.6s4.9-17.5,9.2-19.7,10.5-2.6,12.7,2.3,3.6,17.2.2,20.1-10.3-5.4-10.3-5.4,7.9,2.7,8.5,1-2.2-16.1-4.2-15.8S57.4,65,58,69.4s5.7,12.3,10,14.3,16.4,3.1,19.7.3,9.6-15.7,7.8-18.5S83,47.8,80.5,46.3,67.1,39.3,65,41,50.8,51.6,49.4,54.9s-6.3,16-4.6,19.5S53.2,86.1,56.2,88,69,97,72.3,96.9,93.2,93,97,90.4Z" fill="#1b1464"/></g><g id="inner-sparkle"><g opacity="0.53"><path d="M76.4,72.2c0-.6.5-1,.9-.7l.6.5.4.5c.4.2,0,.6-.1.9s-.5.2-.6.1a1.9,1.9,0,0,1-1.2-1.1Z" fill="#fff"/><path d="M78.6,63.3a2.4,2.4,0,0,1-1-.5c-.3-.2-.2-.6.2-.8l.6-.4c.4-.2.7-.1.8.2a1.3,1.3,0,0,1,.3.8C79.4,63.1,79,63.2,78.6,63.3Z" fill="#fff"/><path d="M57.6,54a.9.9,0,0,1-.8.8c-.8,0-1.1-.2-1.1-.8s.7-.9,1.2-.9A.8.8,0,0,1,57.6,54Z" fill="#fff"/><path d="M66,50.4c.6,0,.9.1.9.5s-.1,1.1-.7,1.1-1-.3-1-.9S65.4,50.4,66,50.4Z" fill="#fff"/><path d="M84.1,90.4c0-.3-.1-.8.4-.8l.5.2c.2.3,0,.6-.4.6a.9.9,0,0,1,.2,1.1l-.8.2c-.3-.1-.6-.3-.5-.7S83.7,90.3,84.1,90.4Z" fill="#fff"/><path d="M57.7,90.9a.8.8,0,1,1,0-1.6.9.9,0,0,1,.8,1A.7.7,0,0,1,57.7,90.9Z" fill="#fff"/><path d="M68.5,70.6c-.1.4-.2.8-.7.8h-.2a.4.4,0,0,1-.6.1c-.2-.2-.4-.5-.1-.8s.1-.3.2-.4.5-.5.9-.4S68.5,70.2,68.5,70.6Z" fill="#fff"/><path d="M57.9,52.1a1.1,1.1,0,0,1-.8.9c-.4,0-.9-.4-.9-.7s.5-1,.9-1A.9.9,0,0,1,57.9,52.1Z" fill="#fff"/><path d="M45.9,84.5c-.4,0-.8-.3-.8-.6s.3-.9.8-.9a1.1,1.1,0,0,1,.9.8C46.8,84.1,46.3,84.5,45.9,84.5Z" fill="#fff"/><path d="M84.1,49.7a.7.7,0,0,1,.7.7c.1.6,0,.8-.5.8s-1,0-1-.6S83.5,49.8,84.1,49.7Z" fill="#fff"/><path d="M72.3,42.8a.8.8,0,0,1-.2.4c-.2.2-1.1,0-1.2-.3s.1-1.2.4-1.2a1.2,1.2,0,0,1,.8.4C72.3,42.2,72.3,42.6,72.3,42.8Z" fill="#fff"/><path d="M47.9,85.2c0,.3-.4.6-.8.6a.8.8,0,0,1-.7-.9c0-.4.3-.6.8-.6A.7.7,0,0,1,47.9,85.2Z" fill="#fff"/><path d="M56.3,78.7a.6.6,0,0,1-.6.6c-.5,0-1-.3-.9-.7s.3-.8.6-.8A.8.8,0,0,1,56.3,78.7Z" fill="#fff"/><path d="M56.4,34.9c-.1-.1-.3-.2-.3-.3a2.1,2.1,0,0,1-.2-.6,1.1,1.1,0,0,1,.7-.3.9.9,0,0,1,.5.4,3.4,3.4,0,0,1,0,1,.7.7,0,0,1-.4.5c0,.1-.3,0-.3,0Z" fill="#fff"/><path d="M78.2,102.3c-.5.1-.7-.2-.5-.6l.5-.7c.2-.4.5-.3.8-.1s.2.5.1.8S78.6,102.4,78.2,102.3Z" fill="#fff"/><path d="M54,56.5a.9.9,0,0,1-.7.8c-.4-.1-.8-.5-.7-.9a1.4,1.4,0,0,1,.7-.6C53.7,55.7,54,56.1,54,56.5Z" fill="#fff"/><path d="M47.8,81.6c.1.4-.3.7-.6.8a1.1,1.1,0,0,1-.8-.8c0-.3.4-.6.9-.7S47.8,81.2,47.8,81.6Z" fill="#fff"/><path d="M95.1,48c0,.4-.4.9-.6.9a1,1,0,0,1-.8-.9c0-.4.3-.6.7-.7A1.2,1.2,0,0,1,95.1,48Z" fill="#fff"/><path d="M65.6,73.8a.9.9,0,0,1-.8-.8c0-.3.3-.7.6-.7a.8.8,0,0,1,.8.7A.9.9,0,0,1,65.6,73.8Z" fill="#fff"/><path d="M69.2,90.6c.1.4-.2.5-.5.5s-.9-.3-.8-.6,0-.7.5-.7S69.2,90.1,69.2,90.6Z" fill="#fff"/><path d="M54.9,87.1c-.1-.1-.5-.3-.6-.6s.4-.6.8-.6a1.3,1.3,0,0,1,.7.5C56,86.8,55.6,87.1,54.9,87.1Z" fill="#fff"/><path d="M70.7,98.2c0,.4-.4,1-.7.9a1.6,1.6,0,0,1-.7-.7c-.1-.2.4-.6.8-.6S70.7,97.8,70.7,98.2Z" fill="#fff"/><path d="M50.2,66.6c-.1-.4.3-.5.5-.5s.8.3.7.5-.4.8-.7.8S50.2,67,50.2,66.6Z" fill="#fff"/><path d="M37.4,75.9c-.3,0-.9-.4-.8-.7s.6-.3.9-.4.5.3.5.6S37.7,75.9,37.4,75.9Z" fill="#fff"/><path d="M38.4,42c0,.3-.3.7-.6.6l-.7-.6c.2-.2.4-.5.6-.6S38.4,41.7,38.4,42Z" fill="#fff"/><path d="M84,78.7c0-.3.1-.6.4-.5a1.6,1.6,0,0,1,.8.6c.1.2-.3.6-.6.6S83.9,79,84,78.7Z" fill="#fff"/><path d="M59.1,68.1c-.5,0-.9-.6-.7-.9s.6,0,.9.1.5.2.3.5A.7.7,0,0,1,59.1,68.1Z" fill="#fff"/><path d="M40.2,61.9c-.3,0-.6,0-.6-.5a.8.8,0,0,1,.7-.7c.2,0,.5.4.5.8S40.6,61.9,40.2,61.9Z" fill="#fff"/><path d="M47.4,49.6c.1.1.3.3.3.4a4.1,4.1,0,0,1-.5.9c0,.1-.3.1-.4.1a.8.8,0,0,1-.2-.4A1,1,0,0,1,47.4,49.6Z" fill="#fff"/><path d="M90.2,68.2c-.1.5,0,.9-.5,1s-.5-.4-.5-.7a.5.5,0,0,1,.6-.5Z" fill="#fff"/><path d="M83.1,52.9c.2.3.4.5.4.6a1.1,1.1,0,0,1-.6.7c-.2.1-.6-.3-.5-.6A4.5,4.5,0,0,1,83.1,52.9Z" fill="#fff"/><path d="M75.9,89.2a.6.6,0,0,1-.6.8c-.4,0-.4-.4-.4-.6a1.5,1.5,0,0,1,.6-.5C75.6,88.8,75.9,89.1,75.9,89.2Z" fill="#fff"/><path d="M70.5,90.5c.2,0,.5,0,.4.4s-.5.7-.7.6a.7.7,0,0,1-.4-.5A.5.5,0,0,1,70.5,90.5Z" fill="#fff"/><path d="M66.8,80.3c.3-.2.5.1.5.4a.5.5,0,0,1-.7.5.7.7,0,0,1-.5-.4C66.1,80.3,66.4,80.2,66.8,80.3Z" fill="#fff"/><path d="M99.8,64.6a4.6,4.6,0,0,1-.7.7l-.4-.4a1.6,1.6,0,0,1,.6-.8C99.4,63.9,99.8,64.2,99.8,64.6Z" fill="#fff"/><path d="M90.1,87.8c0-.6.3-1,.5-.9a.7.7,0,0,1,.4.5c0,.3,0,.7-.4.7S90.2,87.8,90.1,87.8Z" fill="#fff"/><path d="M44.8,91.5c-.1.3-.2.7-.5.5s-.4-.4-.6-.6l.4-.3C44.4,91.1,44.7,91.1,44.8,91.5Z" fill="#fff"/><path d="M38.9,84.6c.1-.3.1-.7.6-.7s.3.4.4.7-.4.3-.6.3Z" fill="#fff"/><path d="M59.3,103.5c.2.2.9.3.5.8s-.5.2-.8.1S58.9,103.9,59.3,103.5Z" fill="#fff"/><path d="M61.5,76.5c.1.1.4.3.3.4s-.2.4-.4.6-.3-.3-.4-.6.2-.3.3-.4Z" fill="#fff"/><path d="M89.9,57.6c.1-.1.3-.3.5-.2s.3.3.4.5l-.4.3C90.1,58.3,89.8,58.1,89.9,57.6Z" fill="#fff"/><path d="M80.7,46.6c.3-.3.4-.5.6-.5s.5.3.5.6-.3.4-.4.3S81,46.8,80.7,46.6Z" fill="#fff"/><path d="M46.5,54.4c-.2-.2-.4-.4-.4-.5s.3-.4.4-.5.6.2.5.5S46.8,54.2,46.5,54.4Z" fill="#fff"/><path d="M48.3,101.6l.4-.3.6.4-.5.5c-.3,0-.5-.2-.4-.5Z" fill="#fff"/><path d="M50.6,97.4l.4.7c0,.1-.3.3-.4.3s-.6-.1-.5-.4S50.3,97.7,50.6,97.4Z" fill="#fff"/><path d="M71.2,75.7l-.5.3a1,1,0,0,1-.4-.5l.4-.4Z" fill="#fff"/><path d="M66.4,64.1l.6.4s0,.3-.1.4h-.5a1.1,1.1,0,0,1-.2-.6Z" fill="#fff"/><path d="M69.9,70.6l.5-.4.4.4c0,.2-.2.3-.3.5Z" fill="#fff"/><path d="M45.2,89c-.3-.3-.5-.4-.5-.6s.2-.4.3-.4l.5.4C45.5,88.5,45.3,88.7,45.2,89Z" fill="#fff"/><path d="M71.6,81.7l-.6.5c-.1-.1-.3-.3-.3-.4a.9.9,0,0,1,.3-.5Z" fill="#fff"/><path d="M49.3,77.4c-.1.4-.3.5-.5.5s-.3-.2-.4-.3l.6-.5Z" fill="#fff"/><path d="M68.6,56.9l-.5.4c-.2,0-.3-.2-.4-.4s.2-.5.4-.4S68.4,56.7,68.6,56.9Z" fill="#fff"/><path d="M60.9,83.2l-.6.5-.4-.4.5-.4Z" fill="#fff"/><path d="M95.4,78.8l-.5.4a.9.9,0,0,1-.3-.5c-.1-.1.2-.4.3-.3Z" fill="#fff"/><path d="M73.6,64.5l-.5.4-.5-.5c0-.1.3-.4.3-.3S73.3,64.3,73.6,64.5Z" fill="#fff"/><path d="M63.5,63.3l.6-.3c0-.1.3.2.3.3l-.4.5Z" fill="#fff"/><path d="M98.3,70c-.2.1-.4.3-.5.2s-.3-.2-.5-.3.3-.3.5-.3l.5.2Z" fill="#fff"/><path d="M49.8,48.8l-.5.3a.9.9,0,0,1-.3-.5l.3-.3c.2,0,.3.2.5.3Z" fill="#fff"/></g></g></svg>